<svg width="25" height="25" viewBox="0 0 25 25" fill="none" xmlns="http://www.w3.org/2000/svg">
<path d="M6.35 17.6C7.2 16.95 8.15 16.4375 9.2 16.0625C10.25 15.6875 11.35 15.5 12.5 15.5C13.65 15.5 14.75 15.6875 15.8 16.0625C16.85 16.4375 17.8 16.95 18.65 17.6C19.2333 16.9167 19.6875 16.1417 20.0125 15.275C20.3375 14.4083 20.5 13.4833 20.5 12.5C20.5 10.2833 19.7208 8.39583 18.1625 6.8375C16.6042 5.27917 14.7167 4.5 12.5 4.5C10.2833 4.5 8.39583 5.27917 6.8375 6.8375C5.27917 8.39583 4.5 10.2833 4.5 12.5C4.5 13.4833 4.6625 14.4083 4.9875 15.275C5.3125 16.1417 5.76667 16.9167 6.35 17.6ZM12.5 13.5C11.5167 13.5 10.6875 13.1625 10.0125 12.4875C9.3375 11.8125 9 10.9833 9 10C9 9.01667 9.3375 8.1875 10.0125 7.5125C10.6875 6.8375 11.5167 6.5 12.5 6.5C13.4833 6.5 14.3125 6.8375 14.9875 7.5125C15.6625 8.1875 16 9.01667 16 10C16 10.9833 15.6625 11.8125 14.9875 12.4875C14.3125 13.1625 13.4833 13.5 12.5 13.5ZM12.5 22.5C11.1167 22.5 9.81667 22.2375 8.6 21.7125C7.38333 21.1875 6.325 20.475 5.425 19.575C4.525 18.675 3.8125 17.6167 3.2875 16.4C2.7625 15.1833 2.5 13.8833 2.5 12.5C2.5 11.1167 2.7625 9.81667 3.2875 8.6C3.8125 7.38333 4.525 6.325 5.425 5.425C6.325 4.525 7.38333 3.8125 8.6 3.2875C9.81667 2.7625 11.1167 2.5 12.5 2.5C13.8833 2.5 15.1833 2.7625 16.4 3.2875C17.6167 3.8125 18.675 4.525 19.575 5.425C20.475 6.325 21.1875 7.38333 21.7125 8.6C22.2375 9.81667 22.5 11.1167 22.5 12.5C22.5 13.8833 22.2375 15.1833 21.7125 16.4C21.1875 17.6167 20.475 18.675 19.575 19.575C18.675 20.475 17.6167 21.1875 16.4 21.7125C15.1833 22.2375 13.8833 22.5 12.5 22.5Z" fill="white"/>
</svg>
