<svg width="24" height="25" viewBox="0 0 24 25" fill="none" xmlns="http://www.w3.org/2000/svg">
<g id="icon/account_balance_wallet">
<mask id="mask0_696_4118" style="mask-type:alpha" maskUnits="userSpaceOnUse" x="0" y="0" width="24" height="25">
<rect id="Bounding box" y="0.5" width="24" height="24" fill="#D9D9D9"/>
</mask>
<g mask="url(#mask0_696_4118)">
<path id="account_balance_wallet" d="M16 14C16.4333 14 16.7917 13.8583 17.075 13.575C17.3583 13.2917 17.5 12.9333 17.5 12.5C17.5 12.0667 17.3583 11.7083 17.075 11.425C16.7917 11.1417 16.4333 11 16 11C15.5667 11 15.2083 11.1417 14.925 11.425C14.6417 11.7083 14.5 12.0667 14.5 12.5C14.5 12.9333 14.6417 13.2917 14.925 13.575C15.2083 13.8583 15.5667 14 16 14ZM5 21.5C4.45 21.5 3.97917 21.3042 3.5875 20.9125C3.19583 20.5208 3 20.05 3 19.5V5.5C3 4.95 3.19583 4.47917 3.5875 4.0875C3.97917 3.69583 4.45 3.5 5 3.5H19C19.55 3.5 20.0208 3.69583 20.4125 4.0875C20.8042 4.47917 21 4.95 21 5.5V8H19V5.5H5V19.5H19V17H21V19.5C21 20.05 20.8042 20.5208 20.4125 20.9125C20.0208 21.3042 19.55 21.5 19 21.5H5ZM13 17.5C12.45 17.5 11.9792 17.3042 11.5875 16.9125C11.1958 16.5208 11 16.05 11 15.5V9.5C11 8.95 11.1958 8.47917 11.5875 8.0875C11.9792 7.69583 12.45 7.5 13 7.5H20C20.55 7.5 21.0208 7.69583 21.4125 8.0875C21.8042 8.47917 22 8.95 22 9.5V15.5C22 16.05 21.8042 16.5208 21.4125 16.9125C21.0208 17.3042 20.55 17.5 20 17.5H13ZM20 15.5V9.5H13V15.5H20Z" fill="white"/>
</g>
</g>
</svg>
