<svg width="20" height="21" viewBox="0 0 20 21" fill="none" xmlns="http://www.w3.org/2000/svg">
<g id="icon/add">
<mask id="mask0_1196_2234" style="mask-type:alpha" maskUnits="userSpaceOnUse" x="0" y="0" width="20" height="21">
<rect id="Bounding box" y="0.5" width="20" height="20" fill="#D9D9D9"/>
</mask>
<g mask="url(#mask0_1196_2234)">
<path id="add" d="M9.1665 11.3332H4.99984C4.76373 11.3332 4.56581 11.2533 4.40609 11.0936C4.24637 10.9339 4.1665 10.7359 4.1665 10.4998C4.1665 10.2637 4.24637 10.0658 4.40609 9.90609C4.56581 9.74636 4.76373 9.6665 4.99984 9.6665H9.1665V5.49984C9.1665 5.26373 9.24636 5.06581 9.40609 4.90609C9.56581 4.74637 9.76373 4.6665 9.99984 4.6665C10.2359 4.6665 10.4339 4.74637 10.5936 4.90609C10.7533 5.06581 10.8332 5.26373 10.8332 5.49984V9.6665H14.9998C15.2359 9.6665 15.4339 9.74636 15.5936 9.90609C15.7533 10.0658 15.8332 10.2637 15.8332 10.4998C15.8332 10.7359 15.7533 10.9339 15.5936 11.0936C15.4339 11.2533 15.2359 11.3332 14.9998 11.3332H10.8332V15.4998C10.8332 15.7359 10.7533 15.9339 10.5936 16.0936C10.4339 16.2533 10.2359 16.3332 9.99984 16.3332C9.76373 16.3332 9.56581 16.2533 9.40609 16.0936C9.24636 15.9339 9.1665 15.7359 9.1665 15.4998V11.3332Z" fill="white"/>
</g>
</g>
</svg>
