<svg width="25" height="24" viewBox="0 0 25 24" fill="none" xmlns="http://www.w3.org/2000/svg">
<mask id="mask0_445_1736" style="mask-type:alpha" maskUnits="userSpaceOnUse" x="0" y="0" width="25" height="24">
<rect x="0.666504" width="24" height="24" fill="#D9D9D9"/>
</mask>
<g mask="url(#mask0_445_1736)">
<path d="M11.6665 17H13.6665V13H17.6665V11H13.6665V7H11.6665V11H7.6665V13H11.6665V17ZM12.6665 22C11.2832 22 9.98317 21.7375 8.7665 21.2125C7.54984 20.6875 6.4915 19.975 5.5915 19.075C4.6915 18.175 3.979 17.1167 3.454 15.9C2.929 14.6833 2.6665 13.3833 2.6665 12C2.6665 10.6167 2.929 9.31667 3.454 8.1C3.979 6.88333 4.6915 5.825 5.5915 4.925C6.4915 4.025 7.54984 3.3125 8.7665 2.7875C9.98317 2.2625 11.2832 2 12.6665 2C14.0498 2 15.3498 2.2625 16.5665 2.7875C17.7832 3.3125 18.8415 4.025 19.7415 4.925C20.6415 5.825 21.354 6.88333 21.879 8.1C22.404 9.31667 22.6665 10.6167 22.6665 12C22.6665 13.3833 22.404 14.6833 21.879 15.9C21.354 17.1167 20.6415 18.175 19.7415 19.075C18.8415 19.975 17.7832 20.6875 16.5665 21.2125C15.3498 21.7375 14.0498 22 12.6665 22ZM12.6665 20C14.8998 20 16.7915 19.225 18.3415 17.675C19.8915 16.125 20.6665 14.2333 20.6665 12C20.6665 9.76667 19.8915 7.875 18.3415 6.325C16.7915 4.775 14.8998 4 12.6665 4C10.4332 4 8.5415 4.775 6.9915 6.325C5.4415 7.875 4.6665 9.76667 4.6665 12C4.6665 14.2333 5.4415 16.125 6.9915 17.675C8.5415 19.225 10.4332 20 12.6665 20Z" fill="white"/>
</g>
</svg>
