<svg width="24" height="24" viewBox="0 0 24 24" fill="none" xmlns="http://www.w3.org/2000/svg">
<g id="icon/add_box">
<mask id="mask0_896_628" style="mask-type:alpha" maskUnits="userSpaceOnUse" x="0" y="0" width="24" height="24">
<rect id="Bounding box" y="-1.52588e-05" width="24" height="24" fill="#D9D9D9"/>
</mask>
<g mask="url(#mask0_896_628)">
<path id="add_box" d="M11 17H13V13H17V11H13V6.99998H11V11H7V13H11V17ZM5 21C4.45 21 3.97917 20.8041 3.5875 20.4125C3.19583 20.0208 3 19.55 3 19V4.99998C3 4.44998 3.19583 3.97915 3.5875 3.58748C3.97917 3.19582 4.45 2.99998 5 2.99998H19C19.55 2.99998 20.0208 3.19582 20.4125 3.58748C20.8042 3.97915 21 4.44998 21 4.99998V19C21 19.55 20.8042 20.0208 20.4125 20.4125C20.0208 20.8041 19.55 21 19 21H5ZM5 19H19V4.99998H5V19Z" fill="white"/>
</g>
</g>
</svg>
