<svg width="38" height="24" viewBox="0 0 38 24" fill="none" xmlns="http://www.w3.org/2000/svg">
<mask id="mask0_323_3132" style="mask-type:luminance" maskUnits="userSpaceOnUse" x="0" y="0" width="38" height="24">
<path d="M38 0H0V24H38V0Z" fill="white"/>
</mask>
<g mask="url(#mask0_323_3132)">
<path d="M34.597 0H3.403C3.273 0 3.143 0 3.013 0.000747416C2.904 0.00151748 2.794 0.00271788 2.685 0.00566224C2.446 0.0120266 2.206 0.0259104 1.97 0.0676751C1.731 0.110165 1.508 0.17947 1.291 0.288593C1.077 0.395745 0.882006 0.535897 0.712006 0.703137C0.543006 0.870377 0.401007 1.06296 0.292007 1.27389C0.182007 1.48822 0.111 1.70798 0.0690002 1.94426C0.0260002 2.1767 0.0120049 2.41399 0.00500488 2.64907C0.00300488 2.75697 0.00100708 2.86487 0.00100708 2.97274C7.08003e-06 3.10096 0 3.22909 0 3.35753V20.6427C0 20.7712 7.08003e-06 20.8991 0.00100708 21.0275C0.00100708 21.1354 0.00300488 21.2433 0.00500488 21.3512C0.0120049 21.5861 0.0260002 21.8234 0.0690002 22.0557C0.111 22.2921 0.182007 22.5118 0.292007 22.7261C0.401007 22.9371 0.543006 23.1299 0.712006 23.2969C0.882006 23.4644 1.077 23.6045 1.291 23.7114C1.508 23.8208 1.731 23.8902 1.97 23.9326C2.206 23.9741 2.446 23.9882 2.685 23.9946C2.794 23.9971 2.904 23.9985 3.013 23.999C3.143 24 3.273 24 3.403 24H34.597C34.727 24 34.857 24 34.986 23.999C35.096 23.9985 35.205 23.9971 35.315 23.9946C35.553 23.9882 35.794 23.9741 36.03 23.9326C36.269 23.8902 36.491 23.8208 36.709 23.7114C36.923 23.6045 37.118 23.4644 37.287 23.2969C37.457 23.1299 37.599 22.9371 37.708 22.7261C37.818 22.5118 37.889 22.2921 37.931 22.0557C37.974 21.8234 37.988 21.5861 37.994 21.3512C37.997 21.2433 37.998 21.1354 37.999 21.0275C38 20.8991 38 20.7712 38 20.6427V3.35753C38 3.22909 38 3.10096 37.999 2.97274C37.998 2.86487 37.997 2.75697 37.994 2.64907C37.988 2.41399 37.974 2.1767 37.931 1.94426C37.889 1.70798 37.818 1.48822 37.708 1.27389C37.599 1.06296 37.457 0.870377 37.287 0.703137C37.118 0.535897 36.923 0.395745 36.709 0.288593C36.491 0.17947 36.269 0.110165 36.03 0.0676751C35.794 0.0259104 35.553 0.0120266 35.315 0.00566224C35.205 0.00271788 35.096 0.00151748 34.986 0.000747416C34.857 0 34.727 0 34.597 0Z" fill="white"/>
<path d="M34.597 0.799805L34.981 0.800529C35.085 0.801254 35.189 0.802364 35.293 0.805172C35.475 0.810019 35.688 0.819736 35.886 0.854796C36.058 0.885418 36.203 0.931984 36.342 1.00165C36.479 1.0703 36.604 1.16026 36.714 1.26819C36.824 1.37683 36.915 1.50081 36.985 1.63741C37.056 1.77319 37.103 1.91511 37.133 2.08638C37.169 2.27985 37.179 2.49026 37.184 2.67074C37.186 2.77262 37.188 2.8745 37.188 2.97879C37.189 3.10493 37.189 3.23099 37.189 3.35737V20.6426C37.189 20.7689 37.189 20.8948 37.188 21.0236C37.188 21.1255 37.186 21.2273 37.184 21.3294C37.179 21.5096 37.169 21.7199 37.133 21.9157C37.103 22.0846 37.056 22.2265 36.985 22.363C36.915 22.4992 36.824 22.6231 36.714 22.731C36.604 22.8398 36.479 22.9295 36.34 22.9987C36.203 23.0681 36.058 23.1146 35.888 23.1449C35.685 23.1804 35.464 23.1902 35.297 23.1947C35.192 23.197 35.087 23.1984 34.98 23.1989C34.853 23.1999 34.725 23.1999 34.597 23.1999H3.40303C3.40303 23.1999 3.40003 23.1999 3.39803 23.1999C3.27203 23.1999 3.14603 23.1999 3.01703 23.1989C2.91303 23.1984 2.80803 23.1971 2.70703 23.1948C2.53603 23.1902 2.31503 23.1805 2.11403 23.1451C1.94203 23.1146 1.79804 23.0681 1.65804 22.9978C1.52104 22.9292 1.39603 22.8396 1.28603 22.7306C1.17603 22.6229 1.08503 22.4995 1.01503 22.363C0.94503 22.2267 0.898035 22.0843 0.867035 21.9134C0.831035 21.718 0.821025 21.5085 0.816025 21.3296C0.813025 21.2271 0.812027 21.1246 0.812027 21.0227L0.811035 20.722V20.6426V3.35737V3.27796L0.812027 2.97784C0.812027 2.87536 0.813025 2.77289 0.816025 2.6705C0.821025 2.49132 0.831035 2.28177 0.867035 2.08477C0.898035 1.91538 0.94503 1.77301 1.01503 1.636C1.08503 1.50059 1.17603 1.37697 1.28603 1.26853C1.39603 1.16044 1.52103 1.0706 1.65903 1.00129C1.79703 0.931961 1.94203 0.885418 2.11403 0.854864C2.31203 0.819713 2.52503 0.810019 2.70703 0.80515C2.81103 0.802364 2.91504 0.801254 3.01804 0.800552L3.40303 0.799805H34.597Z" fill="white"/>
<path d="M10.374 8.07201C10.7 7.67053 10.92 7.13144 10.862 6.58057C10.386 6.60393 9.80502 6.89057 9.46802 7.29237C9.16602 7.63645 8.89802 8.19811 8.96802 8.72589C9.50302 8.77164 10.037 8.46224 10.374 8.07201Z" fill="black"/>
<path d="M10.856 8.82874C10.079 8.78311 9.41904 9.26349 9.04804 9.26349C8.67704 9.26349 8.11003 8.85173 7.49503 8.86283C6.69603 8.87441 5.95403 9.32029 5.54903 10.0294C4.71403 11.4481 5.32904 13.5524 6.14004 14.7078C6.53404 15.2794 7.00904 15.9088 7.63404 15.8862C8.22604 15.8633 8.45703 15.5086 9.17603 15.5086C9.89403 15.5086 10.103 15.8862 10.728 15.8748C11.377 15.8633 11.783 15.3029 12.177 14.7307C12.629 14.0791 12.814 13.4499 12.826 13.4154C12.814 13.4039 11.574 12.9347 11.563 11.5279C11.551 10.3499 12.536 9.78961 12.582 9.75486C12.026 8.94325 11.157 8.85173 10.856 8.82874Z" fill="black"/>
<path d="M17.617 7.23487C19.304 7.23487 20.4799 8.38251 20.4799 10.0534C20.4799 11.7302 19.28 12.8838 17.574 12.8838H15.7059V15.8153H14.356V7.23486L17.617 7.23487ZM15.7059 11.7659H17.255C18.43 11.7659 19.099 11.1416 19.099 10.0594C19.099 8.9772 18.43 8.35876 17.261 8.35876H15.7059V11.7659Z" fill="black"/>
<path d="M20.833 14.0373C20.833 12.9431 21.682 12.2713 23.189 12.188L24.925 12.0869V11.6053C24.925 10.9096 24.449 10.4934 23.653 10.4934C22.9 10.4934 22.43 10.8501 22.315 11.4091H21.086C21.158 10.2792 22.134 9.44678 23.702 9.44678C25.239 9.44678 26.221 10.2495 26.221 11.5042V15.8152H24.973V14.7865H24.943C24.576 15.4823 23.774 15.9222 22.942 15.9222C21.701 15.9222 20.833 15.1611 20.833 14.0373ZM24.925 13.4725V12.9789L23.364 13.074C22.586 13.1276 22.146 13.4665 22.146 14.0017C22.146 14.5487 22.605 14.9055 23.304 14.9055C24.214 14.9055 24.925 14.287 24.925 13.4725Z" fill="black"/>
<path d="M27.399 18.1168V17.0762C27.495 17.0999 27.712 17.0999 27.821 17.0999C28.423 17.0999 28.749 16.8502 28.948 16.208C28.948 16.1961 29.062 15.8275 29.062 15.8215L26.772 9.56006H28.182L29.786 14.6501H29.81L31.413 9.56006H32.787L30.412 16.1425C29.87 17.6589 29.243 18.1465 27.929 18.1465C27.821 18.1465 27.495 18.1346 27.399 18.1168Z" fill="black"/>
</g>
</svg>
