<svg width="25" height="24" viewBox="0 0 25 24" fill="none" xmlns="http://www.w3.org/2000/svg">
<g id="icon/arrow_forward">
<mask id="mask0_1183_6583" style="mask-type:alpha" maskUnits="userSpaceOnUse" x="0" y="0" width="25" height="24">
<rect id="Bounding box" x="0.5" width="24" height="24" fill="#D9D9D9"/>
</mask>
<g mask="url(#mask0_1183_6583)">
<path id="arrow_forward" d="M11.8 19.3C11.6167 19.1167 11.5208 18.8834 11.5125 18.6C11.5042 18.3167 11.5917 18.0834 11.775 17.9L16.675 13H5.5C5.21667 13 4.97917 12.9042 4.7875 12.7125C4.59583 12.5209 4.5 12.2834 4.5 12C4.5 11.7167 4.59583 11.4792 4.7875 11.2875C4.97917 11.0959 5.21667 11 5.5 11H16.675L11.775 6.10005C11.5917 5.91672 11.5042 5.68338 11.5125 5.40005C11.5208 5.11672 11.6167 4.88338 11.8 4.70005C11.9833 4.51672 12.2167 4.42505 12.5 4.42505C12.7833 4.42505 13.0167 4.51672 13.2 4.70005L19.8 11.3C19.9 11.3834 19.9708 11.4875 20.0125 11.6125C20.0542 11.7375 20.075 11.8667 20.075 12C20.075 12.1334 20.0542 12.2584 20.0125 12.375C19.9708 12.4917 19.9 12.6 19.8 12.7L13.2 19.3C13.0167 19.4834 12.7833 19.575 12.5 19.575C12.2167 19.575 11.9833 19.4834 11.8 19.3Z" fill="#181818"/>
</g>
</g>
</svg>
