<svg width="32" height="32" viewBox="0 0 32 32" fill="none" xmlns="http://www.w3.org/2000/svg">
<g id="icon/block">
<mask id="mask0_1309_1899" style="mask-type:alpha" maskUnits="userSpaceOnUse" x="0" y="0" width="32" height="32">
<rect id="Bounding box" width="32" height="32" fill="#D9D9D9"/>
</mask>
<g mask="url(#mask0_1309_1899)">
<path id="block" d="M15.9998 29.3337C14.1554 29.3337 12.4221 28.9837 10.7998 28.2837C9.17762 27.5837 7.7665 26.6337 6.5665 25.4337C5.3665 24.2337 4.4165 22.8225 3.7165 21.2003C3.0165 19.5781 2.6665 17.8448 2.6665 16.0003C2.6665 14.1559 3.0165 12.4225 3.7165 10.8003C4.4165 9.1781 5.3665 7.76699 6.5665 6.56699C7.7665 5.36699 9.17762 4.41699 10.7998 3.71699C12.4221 3.01699 14.1554 2.66699 15.9998 2.66699C17.8443 2.66699 19.5776 3.01699 21.1998 3.71699C22.8221 4.41699 24.2332 5.36699 25.4332 6.56699C26.6332 7.76699 27.5832 9.1781 28.2832 10.8003C28.9832 12.4225 29.3332 14.1559 29.3332 16.0003C29.3332 17.8448 28.9832 19.5781 28.2832 21.2003C27.5832 22.8225 26.6332 24.2337 25.4332 25.4337C24.2332 26.6337 22.8221 27.5837 21.1998 28.2837C19.5776 28.9837 17.8443 29.3337 15.9998 29.3337ZM15.9998 26.667C18.9776 26.667 21.4998 25.6337 23.5665 23.567C25.6332 21.5003 26.6665 18.9781 26.6665 16.0003C26.6665 14.8003 26.4721 13.6448 26.0832 12.5337C25.6943 11.4225 25.1332 10.4003 24.3998 9.46699L9.4665 24.4003C10.3998 25.1337 11.4221 25.6948 12.5332 26.0837C13.6443 26.4725 14.7998 26.667 15.9998 26.667ZM7.59984 22.5337L22.5332 7.60033C21.5998 6.86699 20.5776 6.30588 19.4665 5.91699C18.3554 5.5281 17.1998 5.33366 15.9998 5.33366C13.0221 5.33366 10.4998 6.36699 8.43317 8.43366C6.3665 10.5003 5.33317 13.0225 5.33317 16.0003C5.33317 17.2003 5.52762 18.3559 5.9165 19.467C6.30539 20.5781 6.8665 21.6003 7.59984 22.5337Z" fill="white"/>
</g>
</g>
</svg>
