<svg width="32" height="32" viewBox="0 0 32 32" fill="none" xmlns="http://www.w3.org/2000/svg">
<g id="icon/cancel_schedule_send">
<mask id="mask0_1309_3545" style="mask-type:alpha" maskUnits="userSpaceOnUse" x="0" y="0" width="32" height="32">
<rect id="Bounding box" width="32" height="32" fill="#D9D9D9"/>
</mask>
<g mask="url(#mask0_1309_3545)">
<path id="cancel_schedule_send" d="M20.3 25.9663L22.6333 23.633L24.9667 25.9663L25.9667 24.9663L23.6667 22.6663L26 20.333L25 19.333L22.6667 21.6663L20.3333 19.333L19.3333 20.333L21.6667 22.6663L19.3333 24.9997L20.3 25.9663ZM4 26.6663V5.33301L23.0667 13.333H22.6667C21.8889 13.333 21.1556 13.4219 20.4667 13.5997C19.7778 13.7775 19.1111 14.0219 18.4667 14.333L6.66667 9.33301V13.9997L14.6667 15.9997L6.66667 17.9997V22.6663L13.8667 19.5997C13.6889 20.1108 13.5556 20.6163 13.4667 21.1163C13.3778 21.6163 13.3333 22.133 13.3333 22.6663V22.733L4 26.6663ZM22.6667 29.333C20.8222 29.333 19.25 28.683 17.95 27.383C16.65 26.083 16 24.5108 16 22.6663C16 20.8219 16.65 19.2497 17.95 17.9497C19.25 16.6497 20.8222 15.9997 22.6667 15.9997C24.5111 15.9997 26.0833 16.6497 27.3833 17.9497C28.6833 19.2497 29.3333 20.8219 29.3333 22.6663C29.3333 24.5108 28.6833 26.083 27.3833 27.383C26.0833 28.683 24.5111 29.333 22.6667 29.333Z" fill="white"/>
</g>
</g>
</svg>
