<svg width="16" height="17" viewBox="0 0 16 17" fill="none" xmlns="http://www.w3.org/2000/svg">
<mask id="mask0_233_1390" style="mask-type:alpha" maskUnits="userSpaceOnUse" x="0" y="0" width="16" height="17">
<rect y="0.5" width="16" height="16" fill="#D9D9D9"/>
</mask>
<g mask="url(#mask0_233_1390)">
<path d="M3.33333 15.1666C2.96667 15.1666 2.65278 15.036 2.39167 14.7749C2.13056 14.5138 2 14.1999 2 13.8333V4.49992H3.33333V13.8333H10.6667V15.1666H3.33333ZM6 12.4999C5.63333 12.4999 5.31944 12.3694 5.05833 12.1083C4.79722 11.8471 4.66667 11.5333 4.66667 11.1666V3.16659C4.66667 2.79992 4.79722 2.48603 5.05833 2.22492C5.31944 1.96381 5.63333 1.83325 6 1.83325H12C12.3667 1.83325 12.6806 1.96381 12.9417 2.22492C13.2028 2.48603 13.3333 2.79992 13.3333 3.16659V11.1666C13.3333 11.5333 13.2028 11.8471 12.9417 12.1083C12.6806 12.3694 12.3667 12.4999 12 12.4999H6ZM6 11.1666H12V3.16659H6V11.1666Z" fill="#969696"/>
</g>
</svg>
