<svg width="33" height="33" viewBox="0 0 33 33" fill="none" xmlns="http://www.w3.org/2000/svg">
<g id="logo_icon/discord_32_icononly">
<g id="Vector">
<path d="M27.3161 6.82833C25.4211 5.97606 23.3694 5.35747 21.2322 5.00006C21.2135 4.99949 21.1948 5.00288 21.1776 5.01C21.1604 5.01713 21.145 5.02781 21.1325 5.0413C20.876 5.49493 20.5768 6.08603 20.3773 6.53966C18.1105 6.20975 15.8051 6.20975 13.5383 6.53966C13.3388 6.07228 13.0396 5.49493 12.7689 5.0413C12.7546 5.01381 12.7119 5.00006 12.6691 5.00006C10.5319 5.35747 8.49448 5.97606 6.58524 6.82833C6.57099 6.82833 6.55675 6.84208 6.5425 6.85583C2.66704 12.4506 1.59844 17.8942 2.12562 23.2828C2.12562 23.3103 2.13986 23.3378 2.16836 23.3515C4.733 25.166 7.19791 26.2657 9.63432 26.9943C9.67706 27.0081 9.7198 26.9943 9.73405 26.9668C10.304 26.2108 10.8169 25.4135 11.2586 24.5749C11.2871 24.52 11.2586 24.465 11.2016 24.4512C10.3895 24.1488 9.62007 23.7914 8.86492 23.379C8.80793 23.3515 8.80793 23.269 8.85068 23.2278C9.0074 23.1178 9.16413 22.9941 9.32086 22.8841C9.34936 22.8566 9.3921 22.8566 9.4206 22.8704C14.3219 25.0286 19.6079 25.0286 24.4522 22.8704C24.4807 22.8566 24.5235 22.8566 24.552 22.8841C24.7087 23.0078 24.8654 23.1178 25.0222 23.2415C25.0792 23.2828 25.0792 23.3653 25.0079 23.3927C24.267 23.8189 23.4834 24.1625 22.6712 24.465C22.6143 24.4787 22.6 24.5474 22.6143 24.5887C23.0702 25.4272 23.5831 26.2245 24.1388 26.9806C24.1815 26.9943 24.2243 27.0081 24.267 26.9943C26.7177 26.2657 29.1826 25.166 31.7472 23.3515C31.7757 23.3378 31.79 23.3103 31.79 23.2828C32.4169 17.0557 30.7499 11.6533 27.3731 6.85583C27.3588 6.84208 27.3446 6.82833 27.3161 6.82833ZM11.9995 19.9974C10.5319 19.9974 9.30661 18.6915 9.30661 17.0831C9.30661 15.4748 10.5034 14.1689 11.9995 14.1689C13.5098 14.1689 14.7066 15.4886 14.6924 17.0831C14.6924 18.6915 13.4955 19.9974 11.9995 19.9974ZM21.9303 19.9974C20.4628 19.9974 19.2375 18.6915 19.2375 17.0831C19.2375 15.4748 20.4343 14.1689 21.9303 14.1689C23.4406 14.1689 24.6375 15.4886 24.6232 17.0831C24.6232 18.6915 23.4406 19.9974 21.9303 19.9974Z" fill="white"/>
</g>
</g>
</svg>
