<svg width="24" height="25" viewBox="0 0 24 25" fill="none" xmlns="http://www.w3.org/2000/svg">
<path fill-rule="evenodd" clip-rule="evenodd" d="M6.15001 14L10 18.1665L6.42501 19L4.50001 17.3335L6.15001 14ZM16.311 6L18 6.9285L17.437 10L13.496 7.4285L16.311 6ZM5.81251 6C6.00001 6 6.15051 6.008 6.37501 6.1875C6.68751 6.4375 7.84001 7.2535 7.84001 7.2535L8.04901 7.625C8.42951 7.644 8.43901 7.6785 8.91951 8.0315L19.5 15.2085C19.4185 15.385 18.1605 19 18.1605 19H16.2185L4.50001 6.625C4.50001 6.625 4.69101 6.5535 4.87501 6.4375C5.16351 6.256 5.52651 6 5.81251 6ZM7.25001 3.5H3.00001C2.73601 3.632 2.50001 3.785 2.50001 4.3125V7.75V8.8125L2.99401 10.1865L2.50001 10.875V11.4375L3.00001 11.8125V12.5L2.50001 13V14.875L3.00001 15.1875V17.25C2.47801 17.6215 2.50001 18.0625 2.50001 18.5695V20.9375C3.66951 21.2295 3.47551 21.5 4.81251 21.5C5.99401 21.5 6.75001 21.5 6.75001 21.5C6.93101 21.4885 7.07201 21.4505 7.25001 21.4335C7.74701 21.3855 8.06251 21 8.06251 21L9.37501 21.5L9.87501 21C9.87501 21 10.5305 21.8115 10.6875 22L11.125 21.5L12.5 22C12.5 22 13.01 21.5105 13.5625 21.5H16.25C16.291 21.4605 16.75 21 16.75 21C16.9605 21.126 16.7745 21.5 18.6875 21.5C19.2155 21.5 19.6875 21.375 19.6875 21.375C19.6065 21.105 19.5975 21.16 19.4375 21C19.4375 21 20.6875 21 21.5 21.5V13.7535L20.5 14.0625C20.5195 13.904 20.9815 13.6935 21 13.375C21.0235 12.9735 20.978 11.582 20.9195 11.288C20.8895 11.138 20.603 10.6985 20.5 10.5625C20.6225 10.232 21 10 21 10V9.625L21.5 9.3335V7.2225L21 5.125L21.5 4.5835V3.9855L20.972 3.528L19.257 3.2445L18.861 3.528L18.663 3.198C18.663 3.198 16.071 3.001 15.601 3.001C14.9995 3.001 15.087 3.046 14.8835 3.7235L14.0205 3.8115L13.9375 3.5H13.0625L13.2065 3.3415C13.3595 3.197 13.306 3.255 13.4255 3H10.4165C10.3695 3.086 10.1975 3.281 10.062 3.5C10.062 3.5 9.79801 3.4975 9.60001 3.6295C9.40201 3.7615 9.40301 4 9.13901 4C8.87501 4 8.32751 4 8.01751 4C7.35751 4 7.25001 3.5 7.25001 3.5Z" fill="#F44336"/>
</svg>
