<svg width="32" height="32" viewBox="0 0 32 32" fill="none" xmlns="http://www.w3.org/2000/svg">
<g id="icon/encrypted">
<mask id="mask0_1309_1906" style="mask-type:alpha" maskUnits="userSpaceOnUse" x="0" y="0" width="32" height="32">
<rect id="Bounding box" width="32" height="32" fill="#D9D9D9"/>
</mask>
<g mask="url(#mask0_1309_1906)">
<path id="encrypted" d="M14.0002 20.0003H18.0002L17.2335 15.7003C17.6779 15.4781 18.0279 15.1559 18.2835 14.7337C18.5391 14.3114 18.6668 13.8448 18.6668 13.3337C18.6668 12.6003 18.4057 11.9725 17.8835 11.4503C17.3613 10.9281 16.7335 10.667 16.0002 10.667C15.2668 10.667 14.6391 10.9281 14.1168 11.4503C13.5946 11.9725 13.3335 12.6003 13.3335 13.3337C13.3335 13.8448 13.4613 14.3114 13.7168 14.7337C13.9724 15.1559 14.3224 15.4781 14.7668 15.7003L14.0002 20.0003ZM16.0002 29.3337C12.9113 28.5559 10.3613 26.7837 8.35016 24.017C6.33905 21.2503 5.3335 18.1781 5.3335 14.8003V6.66699L16.0002 2.66699L26.6668 6.66699V14.8003C26.6668 18.1781 25.6613 21.2503 23.6502 24.017C21.6391 26.7837 19.0891 28.5559 16.0002 29.3337ZM16.0002 26.5337C18.3113 25.8003 20.2224 24.3337 21.7335 22.1337C23.2446 19.9337 24.0002 17.4892 24.0002 14.8003V8.50033L16.0002 5.50033L8.00016 8.50033V14.8003C8.00016 17.4892 8.75572 19.9337 10.2668 22.1337C11.7779 24.3337 13.6891 25.8003 16.0002 26.5337Z" fill="white"/>
</g>
</g>
</svg>
