<svg width="33" height="32" viewBox="0 0 33 32" fill="none" xmlns="http://www.w3.org/2000/svg">
<g id="icon/faq">
<mask id="mask0_1580_8868" style="mask-type:alpha" maskUnits="userSpaceOnUse" x="0" y="0" width="33" height="32">
<rect id="Bounding box" x="0.5" width="32" height="32" fill="#D9D9D9"/>
</mask>
<g mask="url(#mask0_1580_8868)">
<path id="import_contacts" d="M9.16634 21.3333C10.2108 21.3333 11.2275 21.4499 12.2163 21.6833C13.2052 21.9166 14.1886 22.2666 15.1663 22.7333V9.59992C14.2552 9.06659 13.2886 8.66658 12.2663 8.39992C11.2441 8.13325 10.2108 7.99992 9.16634 7.99992C8.36634 7.99992 7.5719 8.0777 6.78301 8.23325C5.99412 8.38881 5.23301 8.62214 4.49967 8.93325V22.1333C5.27745 21.8666 6.04967 21.6666 6.81634 21.5333C7.58301 21.3999 8.36634 21.3333 9.16634 21.3333ZM17.833 22.7333C18.8108 22.2666 19.7941 21.9166 20.783 21.6833C21.7719 21.4499 22.7886 21.3333 23.833 21.3333C24.633 21.3333 25.4163 21.3999 26.183 21.5333C26.9497 21.6666 27.7219 21.8666 28.4997 22.1333V8.93325C27.7663 8.62214 27.0052 8.38881 26.2163 8.23325C25.4275 8.0777 24.633 7.99992 23.833 7.99992C22.7886 7.99992 21.7552 8.13325 20.733 8.39992C19.7108 8.66658 18.7441 9.06659 17.833 9.59992V22.7333ZM16.4997 26.6666C15.433 25.8221 14.2775 25.1666 13.033 24.6999C11.7886 24.2333 10.4997 23.9999 9.16634 23.9999C8.23301 23.9999 7.31634 24.1221 6.41634 24.3666C5.51634 24.611 4.65523 24.9555 3.83301 25.3999C3.36634 25.6444 2.91634 25.6333 2.48301 25.3666C2.04967 25.0999 1.83301 24.711 1.83301 24.1999V8.13325C1.83301 7.88881 1.89412 7.65547 2.01634 7.43325C2.13856 7.21103 2.3219 7.04436 2.56634 6.93325C3.58856 6.39992 4.65523 5.99992 5.76634 5.73325C6.87745 5.46659 8.01079 5.33325 9.16634 5.33325C10.4552 5.33325 11.7163 5.49992 12.9497 5.83325C14.183 6.16659 15.3663 6.66659 16.4997 7.33325C17.633 6.66659 18.8163 6.16659 20.0497 5.83325C21.283 5.49992 22.5441 5.33325 23.833 5.33325C24.9886 5.33325 26.1219 5.46659 27.233 5.73325C28.3441 5.99992 29.4108 6.39992 30.433 6.93325C30.6775 7.04436 30.8608 7.21103 30.983 7.43325C31.1052 7.65547 31.1663 7.88881 31.1663 8.13325V24.1999C31.1663 24.711 30.9497 25.0999 30.5163 25.3666C30.083 25.6333 29.633 25.6444 29.1663 25.3999C28.3441 24.9555 27.483 24.611 26.583 24.3666C25.683 24.1221 24.7663 23.9999 23.833 23.9999C22.4997 23.9999 21.2108 24.2333 19.9663 24.6999C18.7219 25.1666 17.5663 25.8221 16.4997 26.6666Z" fill="white"/>
</g>
</g>
</svg>
