<svg width="33" height="32" viewBox="0 0 33 32" fill="none" xmlns="http://www.w3.org/2000/svg">
<g id="icon/flag32">
<mask id="mask0_1300_9465" style="mask-type:alpha" maskUnits="userSpaceOnUse" x="0" y="0" width="33" height="32">
<rect id="Bounding box" x="0.666992" width="32" height="32" fill="#D9D9D9"/>
</mask>
<g mask="url(#mask0_1300_9465)">
<path id="flag" d="M8.66732 27.9997C8.28954 27.9997 7.97287 27.8719 7.71732 27.6163C7.46176 27.3608 7.33398 27.0441 7.33398 26.6663V6.66634C7.33398 6.28856 7.46176 5.9719 7.71732 5.71634C7.97287 5.46079 8.28954 5.33301 8.66732 5.33301H18.234C18.5451 5.33301 18.8229 5.43301 19.0673 5.63301C19.3118 5.83301 19.4673 6.08856 19.534 6.39967L19.8673 7.99967H26.0007C26.3784 7.99967 26.6951 8.12745 26.9507 8.38301C27.2062 8.63856 27.334 8.95523 27.334 9.33301V19.9997C27.334 20.3775 27.2062 20.6941 26.9507 20.9497C26.6951 21.2052 26.3784 21.333 26.0007 21.333H19.1007C18.7895 21.333 18.5118 21.233 18.2673 21.033C18.0229 20.833 17.8673 20.5775 17.8007 20.2663L17.4673 18.6663H10.0007V26.6663C10.0007 27.0441 9.87287 27.3608 9.61732 27.6163C9.36176 27.8719 9.0451 27.9997 8.66732 27.9997ZM20.2007 18.6663H24.6673V10.6663H17.6673L17.134 7.99967H10.0007V15.9997H19.6673L20.2007 18.6663Z" fill="white"/>
</g>
</g>
</svg>
