<svg width="25" height="24" viewBox="0 0 25 24" fill="none" xmlns="http://www.w3.org/2000/svg">
<g id="Frame 184">
<g id="Group 3">
<path id="Shape" fill-rule="evenodd" clip-rule="evenodd" d="M23.77 12.2729C23.77 11.422 23.6936 10.6038 23.5518 9.81836H12.25V14.4602H18.7082C18.43 15.9602 17.5845 17.2311 16.3136 18.082V21.0929H20.1918C22.4609 19.0038 23.77 15.9274 23.77 12.2729Z" fill="#4285F4"/>
<path id="Shape_2" fill-rule="evenodd" clip-rule="evenodd" d="M12.25 23.9998C15.49 23.9998 18.2064 22.9252 20.1918 21.0925L16.3136 18.0816C15.2391 18.8016 13.8645 19.2271 12.25 19.2271C9.12455 19.2271 6.47909 17.1161 5.53546 14.2798H1.52637V17.3889C3.50091 21.3107 7.55909 23.9998 12.25 23.9998Z" fill="#34A853"/>
<path id="Shape_3" fill-rule="evenodd" clip-rule="evenodd" d="M5.53545 14.2797C5.29545 13.5597 5.15909 12.7906 5.15909 11.9997C5.15909 11.2088 5.29545 10.4397 5.53545 9.71969V6.6106H1.52636C0.713636 8.2306 0.25 10.0633 0.25 11.9997C0.25 13.9361 0.713636 15.7688 1.52636 17.3888L5.53545 14.2797Z" fill="#FBBC05"/>
<path id="Shape_4" fill-rule="evenodd" clip-rule="evenodd" d="M12.25 4.77273C14.0118 4.77273 15.5936 5.37818 16.8373 6.56727L20.2791 3.12545C18.2009 1.18909 15.4845 0 12.25 0C7.55909 0 3.50091 2.68909 1.52637 6.61091L5.53546 9.72C6.47909 6.88364 9.12455 4.77273 12.25 4.77273Z" fill="#EA4335"/>
</g>
</g>
</svg>
