<svg width="38" height="24" viewBox="0 0 38 24" fill="none" xmlns="http://www.w3.org/2000/svg">
<mask id="mask0_323_3144" style="mask-type:luminance" maskUnits="userSpaceOnUse" x="0" y="0" width="38" height="24">
<path d="M38 0H0V24H38V0Z" fill="white"/>
</mask>
<g mask="url(#mask0_323_3144)">
<path d="M34.597 0H3.403C3.273 0 3.143 0 3.013 0.000747416C2.904 0.00151748 2.794 0.00271788 2.685 0.00566224C2.446 0.0120266 2.206 0.0259104 1.97 0.0676751C1.731 0.110165 1.508 0.17947 1.291 0.288593C1.077 0.395745 0.882006 0.535897 0.712006 0.703137C0.543006 0.870377 0.401007 1.06296 0.292007 1.27389C0.182007 1.48822 0.111 1.70798 0.0690002 1.94426C0.0260002 2.1767 0.0120049 2.41399 0.00500488 2.64907C0.00300488 2.75697 0.00100708 2.86487 0.00100708 2.97274C7.08003e-06 3.10096 0 3.22909 0 3.35753V20.6427C0 20.7712 7.08003e-06 20.8991 0.00100708 21.0275C0.00100708 21.1354 0.00300488 21.2433 0.00500488 21.3512C0.0120049 21.5861 0.0260002 21.8234 0.0690002 22.0557C0.111 22.2921 0.182007 22.5118 0.292007 22.7261C0.401007 22.9371 0.543006 23.1299 0.712006 23.2969C0.882006 23.4644 1.077 23.6045 1.291 23.7114C1.508 23.8208 1.731 23.8902 1.97 23.9326C2.206 23.9741 2.446 23.9882 2.685 23.9946C2.794 23.9971 2.904 23.9985 3.013 23.999C3.143 24 3.273 24 3.403 24H34.597C34.727 24 34.857 24 34.986 23.999C35.096 23.9985 35.205 23.9971 35.315 23.9946C35.553 23.9882 35.794 23.9741 36.03 23.9326C36.269 23.8902 36.491 23.8208 36.709 23.7114C36.923 23.6045 37.118 23.4644 37.287 23.2969C37.457 23.1299 37.599 22.9371 37.708 22.7261C37.818 22.5118 37.889 22.2921 37.931 22.0557C37.974 21.8234 37.988 21.5861 37.994 21.3512C37.997 21.2433 37.998 21.1354 37.999 21.0275C38 20.8991 38 20.7712 38 20.6427V3.35753C38 3.22909 38 3.10096 37.999 2.97274C37.998 2.86487 37.997 2.75697 37.994 2.64907C37.988 2.41399 37.974 2.1767 37.931 1.94426C37.889 1.70798 37.818 1.48822 37.708 1.27389C37.599 1.06296 37.457 0.870377 37.287 0.703137C37.118 0.535897 36.923 0.395745 36.709 0.288593C36.491 0.17947 36.269 0.110165 36.03 0.0676751C35.794 0.0259104 35.553 0.0120266 35.315 0.00566224C35.205 0.00271788 35.096 0.00151748 34.986 0.000747416C34.857 0 34.727 0 34.597 0Z" fill="white"/>
<path d="M34.597 0.800781L34.98 0.801506C35.084 0.802231 35.188 0.803341 35.293 0.806149C35.475 0.810996 35.687 0.820712 35.886 0.855773C36.058 0.886394 36.202 0.932961 36.341 1.00263C36.478 1.07128 36.604 1.16124 36.713 1.26916C36.823 1.37781 36.914 1.50179 36.985 1.63839C37.055 1.77417 37.102 1.91608 37.133 2.08736C37.168 2.28082 37.178 2.49123 37.183 2.67172C37.186 2.7736 37.187 2.87547 37.188 2.97977C37.189 3.1059 37.189 3.23197 37.189 3.35835V20.6435C37.189 20.7699 37.189 20.8958 37.188 21.0246C37.187 21.1264 37.186 21.2283 37.183 21.3304C37.178 21.5106 37.168 21.7209 37.132 21.9166C37.102 22.0856 37.055 22.2275 36.985 22.364C36.914 22.5002 36.823 22.6241 36.714 22.732C36.603 22.8407 36.478 22.9304 36.34 22.9997C36.202 23.069 36.058 23.1156 35.887 23.1459C35.685 23.1814 35.463 23.1912 35.296 23.1957C35.191 23.198 35.087 23.1994 34.98 23.1999C34.852 23.2009 34.724 23.2009 34.597 23.2009H3.40303C3.40103 23.2009 3.39803 23.2009 3.39803 23.2009C3.27203 23.2009 3.14503 23.2009 3.01703 23.1999C2.91203 23.1994 2.80803 23.198 2.70703 23.1958C2.53603 23.1912 2.31404 23.1814 2.11304 23.1461C1.94104 23.1156 1.79704 23.069 1.65804 22.9988C1.52004 22.9301 1.39503 22.8405 1.28503 22.7316C1.17603 22.6239 1.08503 22.5004 1.01503 22.364C0.94403 22.2277 0.897028 22.0853 0.866028 21.9144C0.830028 21.719 0.821025 21.5095 0.816025 21.3305C0.813025 21.228 0.812035 21.1256 0.811035 21.0237V20.7229V20.6435V3.35835V3.27894V2.97882C0.812035 2.87633 0.813025 2.77387 0.816025 2.67147C0.821025 2.4923 0.830028 2.28275 0.866028 2.08575C0.897028 1.91636 0.94403 1.77398 1.01503 1.63698C1.08503 1.50156 1.17603 1.37794 1.28603 1.2695C1.39503 1.16142 1.52103 1.07157 1.65903 1.00227C1.79703 0.932938 1.94104 0.886394 2.11304 0.855841C2.31204 0.82069 2.52403 0.810996 2.70703 0.806126C2.81103 0.803341 2.91504 0.802231 3.01804 0.801529L3.40303 0.800781H34.597Z" fill="white"/>
</g>
<path d="M18.0721 11.7772V15.2781H16.9651V6.63281H19.8991C20.6431 6.63281 21.2771 6.88164 21.7961 7.3793C22.3261 7.87695 22.5911 8.48455 22.5911 9.2021C22.5911 9.93701 22.3261 10.5446 21.7961 11.0365C21.2821 11.5283 20.6481 11.7714 19.8991 11.7714H18.0721V11.7772ZM18.0721 7.69756V10.7124H19.9221C20.3601 10.7124 20.7291 10.562 21.0171 10.2669C21.3111 9.97173 21.4611 9.61296 21.4611 9.20789C21.4611 8.80861 21.3111 8.45562 21.0171 8.1605C20.7291 7.8538 20.3661 7.70335 19.9221 7.70335H18.0721V7.69756Z" fill="#232B46"/>
<path d="M25.4851 9.16797C26.3041 9.16797 26.9491 9.38786 27.4221 9.82765C27.8951 10.2674 28.1311 10.8693 28.1311 11.6331V15.2787H27.0761V14.457H27.0301C26.5751 15.134 25.9641 15.4697 25.2031 15.4697C24.5511 15.4697 24.0091 15.2787 23.5711 14.891C23.1331 14.5033 22.9141 14.023 22.9141 13.4443C22.9141 12.8309 23.1451 12.3449 23.6061 11.9861C24.0671 11.6215 24.6841 11.4421 25.4501 11.4421C26.1081 11.4421 26.6491 11.5637 27.0701 11.8067V11.5521C27.0701 11.1644 26.9201 10.8403 26.6151 10.5683C26.3091 10.2964 25.9521 10.1633 25.5431 10.1633C24.9261 10.1633 24.4361 10.4237 24.0791 10.9503L23.1041 10.3369C23.6401 9.55568 24.4361 9.16797 25.4851 9.16797ZM24.0551 13.4617C24.0551 13.751 24.1761 13.9941 24.4241 14.185C24.6661 14.376 24.9551 14.4744 25.2831 14.4744C25.7501 14.4744 26.1651 14.3008 26.5281 13.9536C26.8921 13.6064 27.0761 13.2013 27.0761 12.7326C26.7301 12.4606 26.2521 12.3217 25.6351 12.3217C25.1851 12.3217 24.8111 12.4317 24.5111 12.6458C24.2051 12.8714 24.0551 13.1434 24.0551 13.4617Z" fill="#232B46"/>
<path d="M34.1491 9.35938L30.4601 17.8774H29.3181L30.6901 14.8972L28.2581 9.35938H29.4631L31.2151 13.6068H31.2381L32.9441 9.35938H34.1491Z" fill="#232B46"/>
<path d="M13.669 12.0695C13.669 11.7073 13.637 11.3607 13.577 11.0273H8.93799V12.937L11.609 12.9375C11.501 13.5729 11.152 14.1145 10.618 14.4756V15.7146H12.208C13.137 14.8518 13.669 13.5764 13.669 12.0695Z" fill="#4285F4"/>
<path d="M10.6189 14.4773C10.1759 14.7771 9.6059 14.9524 8.9389 14.9524C7.6499 14.9524 6.55691 14.081 6.16591 12.9062H4.5249V14.184C5.3379 15.8031 7.0089 16.9142 8.9389 16.9142C10.2729 16.9142 11.3929 16.4737 12.2089 15.7157L10.6189 14.4773Z" fill="#34A853"/>
<path d="M6.011 11.9566C6.011 11.6268 6.066 11.3079 6.166 11.0082V9.73047H4.52499C4.18899 10.4 4 11.1557 4 11.9566C4 12.7575 4.18999 13.5132 4.52499 14.1827L6.166 12.905C6.066 12.6053 6.011 12.2864 6.011 11.9566Z" fill="#F2AE14"/>
<path d="M8.9389 8.96169C9.6669 8.96169 10.3189 9.21341 10.8339 9.70528L12.2429 8.29159C11.3869 7.49129 10.2709 7 8.9389 7C7.0089 7 5.3379 8.11104 4.5249 9.73016L6.16591 11.0079C6.55691 9.83316 7.6499 8.96169 8.9389 8.96169Z" fill="#E94235"/>
</svg>
