<svg width="25" height="24" viewBox="0 0 25 24" fill="none" xmlns="http://www.w3.org/2000/svg">
<g id="icon/history">
<mask id="mask0_929_1830" style="mask-type:alpha" maskUnits="userSpaceOnUse" x="0" y="0" width="25" height="24">
<rect id="Bounding box" x="0.5" width="24" height="24" fill="#D9D9D9"/>
</mask>
<g mask="url(#mask0_929_1830)">
<path id="history" d="M12.5 21C10.2 21 8.19583 20.2375 6.4875 18.7125C4.77917 17.1875 3.8 15.2833 3.55 13H5.6C5.83333 14.7333 6.60417 16.1667 7.9125 17.3C9.22083 18.4333 10.75 19 12.5 19C14.45 19 16.1042 18.3208 17.4625 16.9625C18.8208 15.6042 19.5 13.95 19.5 12C19.5 10.05 18.8208 8.39583 17.4625 7.0375C16.1042 5.67917 14.45 5 12.5 5C11.35 5 10.275 5.26667 9.275 5.8C8.275 6.33333 7.43333 7.06667 6.75 8H9.5V10H3.5V4H5.5V6.35C6.35 5.28333 7.3875 4.45833 8.6125 3.875C9.8375 3.29167 11.1333 3 12.5 3C13.75 3 14.9208 3.2375 16.0125 3.7125C17.1042 4.1875 18.0542 4.82917 18.8625 5.6375C19.6708 6.44583 20.3125 7.39583 20.7875 8.4875C21.2625 9.57917 21.5 10.75 21.5 12C21.5 13.25 21.2625 14.4208 20.7875 15.5125C20.3125 16.6042 19.6708 17.5542 18.8625 18.3625C18.0542 19.1708 17.1042 19.8125 16.0125 20.2875C14.9208 20.7625 13.75 21 12.5 21ZM15.3 16.2L11.5 12.4V7H13.5V11.6L16.7 14.8L15.3 16.2Z" fill="white"/>
</g>
</g>
</svg>
