<svg width="32" height="32" viewBox="0 0 32 32" fill="none" xmlns="http://www.w3.org/2000/svg">
<g id="icon/history">
<mask id="mask0_690_3780" style="mask-type:alpha" maskUnits="userSpaceOnUse" x="0" y="0" width="32" height="32">
<rect id="Bounding box" width="32" height="32" fill="#D9D9D9"/>
</mask>
<g mask="url(#mask0_690_3780)">
<path id="history" d="M16 28C12.9333 28 10.2611 26.9833 7.98333 24.95C5.70556 22.9167 4.4 20.3778 4.06667 17.3333H6.8C7.11111 19.6444 8.13889 21.5556 9.88333 23.0667C11.6278 24.5778 13.6667 25.3333 16 25.3333C18.6 25.3333 20.8056 24.4278 22.6167 22.6167C24.4278 20.8056 25.3333 18.6 25.3333 16C25.3333 13.4 24.4278 11.1944 22.6167 9.38333C20.8056 7.57222 18.6 6.66667 16 6.66667C14.4667 6.66667 13.0333 7.02222 11.7 7.73333C10.3667 8.44444 9.24444 9.42222 8.33333 10.6667H12V13.3333H4V5.33333H6.66667V8.46667C7.8 7.04444 9.18333 5.94444 10.8167 5.16667C12.45 4.38889 14.1778 4 16 4C17.6667 4 19.2278 4.31667 20.6833 4.95C22.1389 5.58333 23.4056 6.43889 24.4833 7.51667C25.5611 8.59444 26.4167 9.86111 27.05 11.3167C27.6833 12.7722 28 14.3333 28 16C28 17.6667 27.6833 19.2278 27.05 20.6833C26.4167 22.1389 25.5611 23.4056 24.4833 24.4833C23.4056 25.5611 22.1389 26.4167 20.6833 27.05C19.2278 27.6833 17.6667 28 16 28ZM19.7333 21.6L14.6667 16.5333V9.33333H17.3333V15.4667L21.6 19.7333L19.7333 21.6Z" fill="#505050"/>
</g>
</g>
</svg>
