<svg width="32" height="33" viewBox="0 0 32 33" fill="none" xmlns="http://www.w3.org/2000/svg">
    <g id="icon/home">
        <mask id="mask0_839_3415" style="mask-type:alpha" maskUnits="userSpaceOnUse" x="0" y="0" width="32" height="33">
            <rect id="Bounding box" y="0.5" width="32" height="32" fill="#D9D9D9" />
        </mask>
        <g mask="url(#mask0_839_3415)">
            <path id="home"
                d="M7.99992 25.8333H11.9999V17.8333H19.9999V25.8333H23.9999V13.8333L15.9999 7.83334L7.99992 13.8333V25.8333ZM7.99992 28.5C7.26659 28.5 6.63881 28.2389 6.11659 27.7167C5.59436 27.1945 5.33325 26.5667 5.33325 25.8333V13.8333C5.33325 13.4111 5.4277 13.0111 5.61659 12.6333C5.80547 12.2556 6.06659 11.9444 6.39992 11.7L14.3999 5.70001C14.6444 5.52223 14.8999 5.38889 15.1666 5.30001C15.4333 5.21112 15.711 5.16667 15.9999 5.16667C16.2888 5.16667 16.5666 5.21112 16.8333 5.30001C17.0999 5.38889 17.3555 5.52223 17.5999 5.70001L25.5999 11.7C25.9333 11.9444 26.1944 12.2556 26.3833 12.6333C26.5721 13.0111 26.6666 13.4111 26.6666 13.8333V25.8333C26.6666 26.5667 26.4055 27.1945 25.8833 27.7167C25.361 28.2389 24.7333 28.5 23.9999 28.5H17.3333V20.5H14.6666V28.5H7.99992Z"
                fill="white" />
        </g>
    </g>
</svg>