<svg width="24" height="24" viewBox="0 0 24 24" fill="none" xmlns="http://www.w3.org/2000/svg">
<g id="icon/info_600">
<mask id="mask0_607_588" style="mask-type:alpha" maskUnits="userSpaceOnUse" x="0" y="0" width="24" height="24">
<rect id="Bounding box" width="24" height="24" fill="#D9D9D9"/>
</mask>
<g mask="url(#mask0_607_588)">
<path id="info" d="M10.788 17.212H13.212V11H10.788V17.212ZM12 9.28261C12.3634 9.28261 12.668 9.15969 12.9139 8.91386C13.1597 8.66802 13.2826 8.3634 13.2826 7.99998C13.2826 7.63657 13.1597 7.33194 12.9139 7.08611C12.668 6.84027 12.3634 6.71736 12 6.71736C11.6366 6.71736 11.3319 6.84027 11.0861 7.08611C10.8403 7.33194 10.7174 7.63657 10.7174 7.99998C10.7174 8.3634 10.8403 8.66802 11.0861 8.91386C11.3319 9.15969 11.6366 9.28261 12 9.28261ZM12 22.4804C10.5413 22.4804 9.1754 22.2058 7.90233 21.6564C6.62925 21.1071 5.52185 20.3616 4.58013 19.4198C3.6384 18.4781 2.89286 17.3707 2.34353 16.0976C1.7942 14.8246 1.51953 13.4587 1.51953 12C1.51953 10.5413 1.7942 9.1754 2.34353 7.90233C2.89286 6.62925 3.6384 5.52185 4.58013 4.58013C5.52185 3.6384 6.62925 2.89287 7.90233 2.34353C9.1754 1.7942 10.5413 1.51953 12 1.51953C13.4587 1.51953 14.8246 1.7942 16.0976 2.34353C17.3707 2.89287 18.4781 3.6384 19.4198 4.58013C20.3616 5.52185 21.1071 6.62925 21.6564 7.90233C22.2058 9.1754 22.4804 10.5413 22.4804 12C22.4804 13.4587 22.2058 14.8246 21.6564 16.0976C21.1071 17.3707 20.3616 18.4781 19.4198 19.4198C18.4781 20.3616 17.3707 21.1071 16.0976 21.6564C14.8246 22.2058 13.4587 22.4804 12 22.4804ZM12 19.8304C14.1956 19.8304 16.0496 19.0743 17.5619 17.5619C19.0743 16.0496 19.8304 14.1956 19.8304 12C19.8304 9.80433 19.0743 7.95035 17.5619 6.43803C16.0496 4.92571 14.1956 4.16956 12 4.16956C9.80433 4.16956 7.95035 4.92571 6.43803 6.43803C4.92571 7.95035 4.16956 9.80433 4.16956 12C4.16956 14.1956 4.92571 16.0496 6.43803 17.5619C7.95035 19.0743 9.80433 19.8304 12 19.8304Z" fill="#0094E8"/>
</g>
</g>
</svg>
