<svg width="25" height="24" viewBox="0 0 25 24" fill="none" xmlns="http://www.w3.org/2000/svg">
<g id="icon/key">
<mask id="mask0_931_1286" style="mask-type:alpha" maskUnits="userSpaceOnUse" x="0" y="0" width="25" height="24">
<rect id="Bounding box" x="0.5" width="24" height="24" fill="#D9D9D9"/>
</mask>
<g mask="url(#mask0_931_1286)">
<path id="key" d="M7.5 14C6.95 14 6.47917 13.8042 6.0875 13.4125C5.69583 13.0208 5.5 12.55 5.5 12C5.5 11.45 5.69583 10.9792 6.0875 10.5875C6.47917 10.1958 6.95 10 7.5 10C8.05 10 8.52083 10.1958 8.9125 10.5875C9.30417 10.9792 9.5 11.45 9.5 12C9.5 12.55 9.30417 13.0208 8.9125 13.4125C8.52083 13.8042 8.05 14 7.5 14ZM7.5 18C5.83333 18 4.41667 17.4167 3.25 16.25C2.08333 15.0833 1.5 13.6667 1.5 12C1.5 10.3333 2.08333 8.91667 3.25 7.75C4.41667 6.58333 5.83333 6 7.5 6C8.61667 6 9.62917 6.275 10.5375 6.825C11.4458 7.375 12.1667 8.1 12.7 9H21.5L24.5 12L20 16.5L18 15L16 16.5L13.875 15H12.7C12.1667 15.9 11.4458 16.625 10.5375 17.175C9.62917 17.725 8.61667 18 7.5 18ZM7.5 16C8.43333 16 9.25417 15.7167 9.9625 15.15C10.6708 14.5833 11.1417 13.8667 11.375 13H14.5L15.95 14.025L18 12.5L19.775 13.875L21.65 12L20.65 11H11.375C11.1417 10.1333 10.6708 9.41667 9.9625 8.85C9.25417 8.28333 8.43333 8 7.5 8C6.4 8 5.45833 8.39167 4.675 9.175C3.89167 9.95833 3.5 10.9 3.5 12C3.5 13.1 3.89167 14.0417 4.675 14.825C5.45833 15.6083 6.4 16 7.5 16Z" fill="white"/>
</g>
</g>
</svg>
