<svg width="43" height="43" viewBox="0 0 43 43" fill="none" xmlns="http://www.w3.org/2000/svg">
<path d="M15.3658 5.19074L2.85736 17.6982C-0.285788 20.8413 -0.285788 25.9364 2.85736 29.0795L7.26816 33.4903L8.18657 34.4087L12.3113 30.284L7.84141 25.8142C6.50147 24.4742 6.50147 22.3035 7.84141 20.9635L18.6301 10.1748C19.9701 8.83485 22.1409 8.83485 23.4808 10.1748L37.8322 24.5262L41.9569 20.4015L26.7451 5.18973C23.604 2.04759 18.508 2.04759 15.3658 5.19074Z" fill="#FF4A18"/>
<path d="M18.0688 24.527L23.8257 30.2839L18.0688 36.0407L22.1935 40.1664L32.0761 30.2839L22.1935 20.4023L18.0688 24.527Z" fill="#FF4A18"/>
</svg>
