<svg width="100" height="43" viewBox="0 0 100 43" fill="none" xmlns="http://www.w3.org/2000/svg">
<path d="M15.0595 5.33562L2.38825 17.7327C-0.796083 20.8479 -0.796083 25.8975 2.38825 29.0127L6.85683 33.3842L7.78727 34.2944L11.966 30.2065L7.43758 25.7764C6.08009 24.4484 6.08009 22.297 7.43758 20.9689L18.3677 10.2763C19.7252 8.94827 21.9244 8.94827 23.2819 10.2763L37.8213 24.4999L42 20.4119L26.59 5.33562C23.4067 2.22146 18.2439 2.22146 15.0595 5.33562Z" fill="#FF4A18"/>
<path d="M17.7992 24.5008L23.6315 30.2064L17.7992 35.912L21.9779 40L31.9899 30.2064L21.9779 20.4119L17.7992 24.5008Z" fill="#FF4A18"/>
<path d="M82.113 10.2283H75.6201C73.802 10.2283 72.3232 11.6794 72.3232 13.4635V19.9481H75.3044V13.7804C75.3044 13.2032 75.7826 12.7339 76.3708 12.7339H77.7457V19.9492H80.7525V12.7339H81.9125C82.3331 12.7339 82.6467 12.7743 82.8431 12.854C83.2123 13.0034 83.2904 13.6532 83.2904 14.1729V19.9502H86.2623V13.8561C86.2623 13.0044 86.1173 12.3071 85.8325 11.7843C85.2731 10.751 84.0216 10.2283 82.113 10.2283Z" fill="white"/>
<path d="M87.4644 15.0973C87.4644 18.3164 89.1364 19.9492 92.4343 19.9492H96.743V17.5465H92.7531C91.4934 17.5465 91.0532 17.278 90.9062 17.054C90.7848 16.8683 90.7129 16.615 90.6892 16.2982H96.743V13.8955H90.6913C90.717 13.6018 90.792 13.3566 90.9165 13.1638C91.1396 12.8147 91.7813 12.63 92.7706 12.63H96.743V10.2273H92.4353C89.1364 10.2283 87.4644 11.8661 87.4644 15.0973Z" fill="white"/>
<path d="M47.2986 10.1131V16.7128C47.2986 18.4969 48.7773 19.9481 50.5954 19.9481H53.6989V17.3062H51.0582C50.47 17.3062 49.9908 16.8369 49.9908 16.2597V10.5673C49.9908 9.99003 50.47 9.52079 51.0582 9.52079H59.0124V6.87891H50.5954C48.7773 6.8779 47.2986 8.32902 47.2986 10.1131Z" fill="white"/>
<path d="M53.2239 14.7339H56.3192V19.9491H59.0124V12.092H53.2239V14.7339Z" fill="white"/>
<path d="M67.3182 10.2283H64.3134C62.4953 10.2283 61.0166 11.6794 61.0166 13.4635V16.7129C61.0166 18.497 62.4953 19.9481 64.3134 19.9481H66.6118V17.3063H64.7762C64.188 17.3063 63.7098 16.837 63.7098 16.2598V13.9176C63.7098 13.3404 64.188 12.8712 64.7762 12.8712H66.8555C67.4437 12.8712 67.9219 13.3404 67.9219 13.9176V16.2356V19.9481H70.6151V13.4635C70.6151 11.6794 69.1353 10.2283 67.3182 10.2283Z" fill="white"/>
<path d="M65.1659 26.9875C63.5771 26.9875 62.2958 27.4487 61.358 28.3569C60.4016 29.2833 59.9163 30.5124 59.9163 32.01C59.9163 33.5317 60.4109 34.7679 61.3868 35.6832C62.3359 36.5732 63.608 37.0243 65.1659 37.0243C66.7362 37.0243 68.0124 36.5712 68.9584 35.6781C69.9076 34.782 70.3899 33.5479 70.3899 32.01C70.3899 30.4721 69.9086 29.2359 68.9594 28.3378C68.0123 27.4427 66.7362 26.9875 65.1659 26.9875ZM63.0023 32.0069C63.0023 31.2491 63.174 30.6375 63.5154 30.1885C63.8908 29.687 64.4245 29.4427 65.1484 29.4427C65.8847 29.4427 66.4246 29.6839 66.7999 30.1814C67.1342 30.6244 67.3028 31.239 67.3028 32.0079C67.3028 32.566 67.2133 33.0423 67.0365 33.4207C66.6735 34.1957 66.0565 34.5721 65.1474 34.5721C64.4121 34.5721 63.8743 34.3309 63.5041 33.8344C63.172 33.3904 63.0023 32.7759 63.0023 32.0069Z" fill="white"/>
<path d="M76.0551 26.9875C74.4663 26.9875 73.185 27.4487 72.2471 28.3569C71.2908 29.2833 70.8054 30.5124 70.8054 32.01C70.8054 33.5317 71.3 34.7679 72.2759 35.6832C73.2251 36.5732 74.4971 37.0243 76.0551 37.0243C77.6253 37.0243 78.9005 36.5712 79.8476 35.6781C80.7967 34.782 81.279 33.5479 81.279 32.01C81.279 30.4721 80.7978 29.2359 79.8486 28.3378C78.9015 27.4427 77.6253 26.9875 76.0551 26.9875ZM78.193 32.0069C78.193 32.565 78.1035 33.0413 77.9266 33.4197C77.5636 34.1947 76.9456 34.5711 76.0376 34.5711C75.3023 34.5711 74.7645 34.3299 74.3943 33.8334C74.0601 33.3904 73.8904 32.7759 73.8904 32.0069C73.8904 31.2491 74.0622 30.6375 74.4036 30.1885C74.7789 29.6859 75.3126 29.4427 76.0366 29.4427C76.7729 29.4427 77.3127 29.6839 77.6881 30.1814C78.0233 30.6234 78.193 31.238 78.193 32.0069Z" fill="white"/>
<path d="M88.2449 30.7416H85.9918C85.0499 30.7416 85.0499 30.3289 85.0499 30.1523C85.0499 29.9717 85.091 29.8395 85.1723 29.7598C85.2381 29.6952 85.5024 29.5448 86.5327 29.5448H91.1716V27.1421H85.5815C83.2503 27.1421 82.0173 28.2239 82.0173 30.2714C82.0173 31.0292 82.1366 31.5994 82.3803 32.0141C82.8133 32.7619 83.8385 33.1262 85.5116 33.1262H87.6598C88.7581 33.1262 88.7581 33.5995 88.7581 33.8013C88.7581 33.9809 88.7581 34.4592 87.6598 34.4592H82.1829V36.862H88.8383C89.7196 36.862 90.4281 36.538 90.9443 35.9013C91.4143 35.3301 91.6518 34.6005 91.6518 33.7327C91.6518 31.776 90.4744 30.7416 88.2449 30.7416Z" fill="white"/>
<path d="M97.0012 34.1756C96.8305 33.9496 96.7431 33.5409 96.7431 32.9617V23.7917H93.7804V27.142H92.0343V29.4499H93.7804V33.7326C93.7804 34.7034 94.0478 35.4754 94.5733 36.0253C95.1039 36.5804 95.8741 36.8619 96.8634 36.8619H99.3715V34.554H98.1128C97.5709 34.554 97.1965 34.4269 97.0012 34.1756Z" fill="white"/>
<path d="M57.4668 30.3137C58.5569 29.6295 59.108 28.6194 59.108 27.3065C59.108 26.027 58.5836 25.0532 57.5481 24.4103C56.8796 23.9936 55.7639 23.7917 54.1371 23.7917H47.2976V26.5194H51.2804H54.1895C55.5582 26.5194 55.7156 27.2177 55.7156 27.7435C55.7156 28.2692 55.5572 28.9675 54.1895 28.9675H50.4711V27.806H47.2976V36.8629H54.5998C57.6139 36.8629 59.142 35.6257 59.142 33.1857C59.143 31.8778 58.5795 30.9141 57.4668 30.3137ZM54.2245 34.1686H50.4711V31.669H54.2245C55.6004 31.669 55.7598 32.3875 55.7598 32.9273C55.7598 33.4602 55.6014 34.1686 54.2245 34.1686Z" fill="white"/>
<path d="M99.3716 27.1421H98.0532V29.45H99.3716V27.1421Z" fill="white"/>
</svg>
