<svg width="25" height="24" viewBox="0 0 25 24" fill="none" xmlns="http://www.w3.org/2000/svg">
<mask id="mask0_445_1721" style="mask-type:alpha" maskUnits="userSpaceOnUse" x="0" y="0" width="25" height="24">
<rect x="0.666504" width="24" height="24" fill="#D9D9D9"/>
</mask>
<g mask="url(#mask0_445_1721)">
<path d="M15.9915 16.275C15.8082 16.0583 15.7165 15.8125 15.7165 15.5375C15.7165 15.2625 15.8082 15.0333 15.9915 14.85L17.8415 13H10.6665C10.3832 13 10.1457 12.9042 9.954 12.7125C9.76234 12.5208 9.6665 12.2833 9.6665 12C9.6665 11.7167 9.76234 11.4792 9.954 11.2875C10.1457 11.0958 10.3832 11 10.6665 11H17.8415L15.9915 9.15C15.7915 8.95 15.6915 8.7125 15.6915 8.4375C15.6915 8.1625 15.7915 7.925 15.9915 7.725C16.1748 7.525 16.404 7.425 16.679 7.425C16.954 7.425 17.1832 7.51667 17.3665 7.7L20.9665 11.3C21.0665 11.4 21.1373 11.5083 21.179 11.625C21.2207 11.7417 21.2415 11.8667 21.2415 12C21.2415 12.1333 21.2207 12.2583 21.179 12.375C21.1373 12.4917 21.0665 12.6 20.9665 12.7L17.3665 16.3C17.1498 16.5167 16.9123 16.6125 16.654 16.5875C16.3957 16.5625 16.1748 16.4583 15.9915 16.275ZM5.6665 21C5.1165 21 4.64567 20.8042 4.254 20.4125C3.86234 20.0208 3.6665 19.55 3.6665 19V5C3.6665 4.45 3.86234 3.97917 4.254 3.5875C4.64567 3.19583 5.1165 3 5.6665 3H11.6665C11.9498 3 12.1873 3.09583 12.379 3.2875C12.5707 3.47917 12.6665 3.71667 12.6665 4C12.6665 4.28333 12.5707 4.52083 12.379 4.7125C12.1873 4.90417 11.9498 5 11.6665 5H5.6665V19H11.6665C11.9498 19 12.1873 19.0958 12.379 19.2875C12.5707 19.4792 12.6665 19.7167 12.6665 20C12.6665 20.2833 12.5707 20.5208 12.379 20.7125C12.1873 20.9042 11.9498 21 11.6665 21H5.6665Z" fill="white"/>
</g>
</svg>
