<svg width="84" height="68" viewBox="0 0 84 68" fill="none" xmlns="http://www.w3.org/2000/svg">
<rect width="83.9882" height="67.4471" rx="20" fill="white"/>
<path d="M21.6399 17.0614C20.9115 17.0614 20.3304 16.4685 20.1617 15.7656C20.0768 15.3231 19.9281 14.9228 19.7157 14.5646C19.5033 14.1853 19.2272 13.8798 18.8873 13.6481C18.5687 13.3952 18.1758 13.2688 17.7085 13.2688C16.6041 13.2688 15.8076 13.8798 15.3191 15.1019C14.8306 16.3239 14.5863 18.3466 14.5863 21.17C14.5863 22.5184 14.6288 23.7405 14.7138 24.8361C14.7987 25.9318 14.9474 26.8694 15.1598 27.6489C15.3934 28.4075 15.712 28.9974 16.1156 29.4188C16.5404 29.8191 17.082 30.0193 17.7404 30.0193C18.0165 30.0193 18.3139 29.9456 18.6325 29.7981C18.9723 29.6506 19.2803 29.4293 19.5564 29.1344C19.8537 28.8394 20.098 28.4707 20.2891 28.0282C20.4803 27.5647 20.5759 27.0274 20.5759 26.4164V25.6104C20.5759 24.7813 19.8983 24.1092 19.0626 24.1092C18.2268 24.1092 17.5492 23.4371 17.5492 22.608V22.4342C17.5492 21.5091 18.3052 20.7591 19.2378 20.7591H21.2609C23.3107 20.7591 24.9725 22.4076 24.9725 24.4411V31.2519C24.9725 32.177 24.2165 32.9269 23.2839 32.9269H22.6467C22.0661 32.9269 21.5954 32.46 21.5954 31.884V30.8816C21.5954 30.8592 21.5771 30.841 21.5545 30.841C21.5403 30.841 21.5271 30.8484 21.5196 30.8603C20.9697 31.7351 20.3047 32.3608 19.5245 32.7373C18.7599 33.0955 17.836 33.2746 16.7528 33.2746C15.351 33.2746 14.204 33.0323 13.312 32.5477C12.4411 32.0631 11.7509 31.3151 11.2411 30.3037C10.7526 29.2924 10.4234 28.0493 10.2535 26.5744C10.0836 25.0784 9.9986 23.3507 9.9986 21.3912C9.9986 19.4949 10.1154 17.8304 10.349 16.3977C10.6039 14.9649 11.0287 13.7745 11.6234 12.8263C12.2181 11.8571 13.004 11.1302 13.981 10.6456C14.958 10.161 16.1793 9.9187 17.6448 9.9187C20.1511 9.9187 21.9565 10.5403 23.0609 11.7834C23.7874 12.5872 24.275 13.6236 24.5236 14.8924C24.7552 16.0747 23.7334 17.0614 22.5193 17.0614H21.6399Z" fill="black"/>
<path d="M33.8824 25.534C33.8824 25.0843 33.3418 24.8139 32.9266 24.9941C32.5868 25.1206 32.2788 25.2154 32.0027 25.2786C31.1106 25.4682 30.4734 25.7843 30.0911 26.2267C29.7088 26.6692 29.5176 27.2697 29.5176 28.0282C29.5176 28.6814 29.6451 29.2397 29.9 29.7032C30.1548 30.1668 30.5796 30.3986 31.1743 30.3986C31.4717 30.3986 31.7796 30.3564 32.0982 30.2721C32.4168 30.1668 32.7036 30.0088 32.9584 29.7981C33.2346 29.5874 33.4576 29.3135 33.6275 28.9763C33.7974 28.6392 33.8824 28.2389 33.8824 27.7754V25.534ZM26.268 21.1384C26.0392 21.1384 25.8538 20.9544 25.8538 20.7275C25.8538 19.7372 26.0131 18.9155 26.3317 18.2623C26.6503 17.5881 27.0751 17.0508 27.6061 16.6505C28.1583 16.2291 28.7955 15.9341 29.5176 15.7656C30.261 15.5759 31.0469 15.4811 31.8752 15.4811C33.1921 15.4811 34.2541 15.6075 35.0612 15.8604C35.8683 16.1132 36.4948 16.4714 36.9409 16.9349C37.3869 17.3985 37.6842 17.9568 37.8329 18.61C38.0028 19.2421 38.0878 19.9374 38.0878 20.6959V29.64C38.0878 30.4407 38.1196 31.0623 38.1834 31.5047C38.3172 32.202 37.8408 32.9269 37.1253 32.9269H35.3546C34.7814 32.9269 34.231 32.6203 34.0735 32.0736C34.0124 31.7704 33.9513 31.4769 33.8901 31.193C33.8856 31.1721 33.8669 31.1571 33.8453 31.1571C33.8288 31.1571 33.8135 31.1659 33.8053 31.1801C33.2985 32.0521 32.7083 32.6238 32.0345 32.8953C31.3761 33.1482 30.5159 33.2746 29.4539 33.2746C28.6893 33.2746 28.0415 33.1482 27.5105 32.8953C26.9795 32.6214 26.5547 32.2527 26.2361 31.7892C25.9175 31.3256 25.6839 30.8094 25.5352 30.2405C25.3865 29.6506 25.3122 29.0712 25.3122 28.5023C25.3122 27.7016 25.3972 27.0168 25.5671 26.448C25.737 25.858 25.9919 25.3629 26.3317 24.9625C26.6928 24.5411 27.1388 24.1935 27.6698 23.9196C28.222 23.6457 28.8805 23.4034 29.6451 23.1927L32.1301 22.529C32.7885 22.3604 33.2452 22.1287 33.5 21.8337C33.7549 21.5387 33.8824 21.1068 33.8824 20.5379C33.8824 19.8847 33.7231 19.379 33.4045 19.0209C33.1071 18.6416 32.5867 18.452 31.8434 18.452C31.1637 18.452 30.654 18.6521 30.3141 19.0525C29.9743 19.4528 29.8044 19.9901 29.8044 20.6643C29.8044 20.9261 29.5904 21.1384 29.3265 21.1384H26.268Z" fill="black"/>
<path d="M39.3126 18.0095C39.3126 16.8575 40.254 15.9236 41.4153 15.9236H42.6419C43.1258 15.9236 43.5181 16.3127 43.5181 16.7927V17.6203C43.5181 17.6432 43.5368 17.6619 43.56 17.6619C43.5736 17.6619 43.5865 17.6552 43.5944 17.6441C44.1434 16.8738 44.7551 16.3214 45.4296 15.9868C46.1305 15.6497 46.9589 15.4811 47.9146 15.4811C48.9341 15.4811 49.7837 15.7129 50.4634 16.1764C51.1557 16.6343 51.6201 17.2978 51.8565 18.1669C51.8617 18.1858 51.879 18.1991 51.8987 18.1991C51.9169 18.1991 51.9331 18.1878 51.9396 18.171C52.28 17.2792 52.8181 16.6143 53.5537 16.1764C54.3184 15.7129 55.221 15.4811 56.2618 15.4811C57.7273 15.4811 58.7999 15.9236 59.4796 16.8085C60.1805 17.6724 60.5309 18.926 60.5309 20.5695V30.7462C60.5309 31.9506 59.5467 32.9269 58.3326 32.9269C57.1185 32.9269 56.1343 31.9506 56.1343 30.7462V21.0436C56.1343 20.3272 55.9963 19.7794 55.7202 19.4001C55.4653 19.0209 55.0299 18.8312 54.4139 18.8312C53.713 18.8312 53.1502 19.063 52.7254 19.5265C52.3218 19.9901 52.1201 20.7275 52.1201 21.7389V30.7462C52.1201 31.9506 51.1359 32.9269 49.9218 32.9269C48.7077 32.9269 47.7235 31.9506 47.7235 30.7462V21.0436C47.7235 20.3272 47.5854 19.7794 47.3093 19.4001C47.0544 19.0209 46.619 18.8312 46.0031 18.8312C45.3022 18.8312 44.7393 19.063 44.3145 19.5265C43.911 19.9901 43.7092 20.7275 43.7092 21.7389V30.7462C43.7092 31.9506 42.725 32.9269 41.5109 32.9269C40.2968 32.9269 39.3126 31.9506 39.3126 30.7462V18.0095Z" fill="black"/>
<path d="M68.0702 22.4974C69.0142 22.4974 69.7907 21.7193 69.6686 20.7907C69.6048 20.285 69.488 19.8637 69.3181 19.5265C69.1694 19.1683 68.9464 18.905 68.6491 18.7364C68.3729 18.5468 68.0119 18.452 67.5658 18.452C67.1198 18.452 66.7481 18.5573 66.4508 18.768C66.1747 18.9576 65.9516 19.221 65.7817 19.5581C65.6118 19.8742 65.4844 20.2324 65.3994 20.6327C65.3357 21.033 65.3038 21.4334 65.3038 21.8337C65.3038 22.2002 65.6034 22.4974 65.9729 22.4974H68.0702ZM66.6738 25.089C65.9172 25.089 65.3038 25.6974 65.3038 26.448C65.3038 26.9536 65.3357 27.4488 65.3994 27.9334C65.4844 28.3969 65.6118 28.8183 65.7817 29.1976C65.9516 29.5558 66.1747 29.8507 66.4508 30.0825C66.7269 30.2932 67.0667 30.3986 67.4703 30.3986C68.2136 30.3986 68.7553 30.1352 69.0951 29.6084C69.2125 29.4264 69.3173 29.2117 69.4093 28.9643C69.7683 27.9997 70.5772 27.2065 71.6137 27.2065C72.7767 27.2065 73.7443 28.1822 73.4463 29.2974C73.1825 30.2845 72.7516 31.094 72.1536 31.726C71.1766 32.7584 69.6367 33.2746 67.534 33.2746C65.941 33.2746 64.6985 33.0112 63.8064 32.4845C62.9144 31.9577 62.256 31.2624 61.8312 30.3986C61.4064 29.5347 61.1409 28.5655 61.0347 27.4909C60.9497 26.4164 60.9073 25.3418 60.9073 24.2672C60.9073 23.1295 60.9816 22.0338 61.1303 20.9803C61.3002 19.9269 61.6188 18.9893 62.086 18.1675C62.5746 17.3458 63.2648 16.6926 64.1569 16.208C65.049 15.7234 66.2384 15.4811 67.7251 15.4811C68.9995 15.4811 70.0402 15.6918 70.8474 16.1132C71.6757 16.5136 72.3235 17.093 72.7908 17.8515C73.258 18.5889 73.5766 19.4949 73.7466 20.5695C73.9165 21.623 74.0014 22.8029 74.0014 24.1092C74.0014 24.6503 73.5592 25.089 73.0138 25.089H66.6738Z" fill="black"/>
<path d="M10.0942 23.4525C10.0942 22.2481 11.0784 21.2717 12.2925 21.2717C13.5065 21.2717 14.4908 22.2481 14.4908 23.4525V41.2673C14.4908 41.2902 14.5095 41.3087 14.5325 41.3087C14.5463 41.3087 14.5592 41.3019 14.567 41.2907C15.031 40.6255 15.5472 40.1258 16.1156 39.7917C16.7103 39.4546 17.4218 39.286 18.2502 39.286C20.0555 39.286 21.383 39.9918 22.2326 41.4035C23.0821 42.7941 23.5069 45.0697 23.5069 48.2301C23.5069 51.3906 23.0821 53.6556 22.2326 55.0251C21.383 56.3947 20.0555 57.0794 18.2502 57.0794C17.3581 57.0794 16.6041 56.9214 15.9881 56.6054C15.3983 56.2919 14.8607 55.7401 14.3753 54.9499C14.3679 54.9378 14.3546 54.9303 14.3404 54.9303C14.3178 54.9303 14.2996 54.9484 14.2996 54.9708V55.8311C14.2996 56.3285 13.8931 56.7318 13.3916 56.7318H12.1969C11.0356 56.7318 10.0942 55.7979 10.0942 54.6459V23.4525ZM14.4908 48.2301C14.4908 50.0843 14.6288 51.4854 14.9049 52.4336C15.2023 53.3606 15.8395 53.8242 16.8165 53.8242C17.7723 53.8242 18.3882 53.3606 18.6643 52.4336C18.9617 51.4854 19.1104 50.0843 19.1104 48.2301C19.1104 46.376 18.9617 44.9854 18.6643 44.0583C18.3882 43.1102 17.7723 42.6361 16.8165 42.6361C15.8395 42.6361 15.2023 43.1102 14.9049 44.0583C14.6288 44.9854 14.4908 46.376 14.4908 48.2301Z" fill="black"/>
<path d="M55.5971 51.1694C55.9138 51.1694 56.1706 51.4241 56.1706 51.7383C56.1706 52.4757 56.3618 53.0762 56.7441 53.5397C57.1476 53.9822 57.7211 54.2034 58.4645 54.2034C59.1441 54.2034 59.6857 54.0349 60.0893 53.6977C60.4928 53.3606 60.6946 52.855 60.6946 52.1807C60.6946 51.6329 60.5353 51.222 60.2167 50.9481C59.8981 50.6532 59.5264 50.4214 59.1017 50.2528L56.0113 49.1467C54.8006 48.7253 53.8873 48.1353 53.2714 47.3768C52.6555 46.5972 52.3475 45.6069 52.3475 44.406C52.3475 43.7107 52.4643 43.0575 52.6979 42.4465C52.9316 41.8144 53.3033 41.2666 53.813 40.803C54.3228 40.3395 54.9706 39.9708 55.7564 39.6969C56.5635 39.423 57.5299 39.286 58.6556 39.286C60.6521 39.286 62.1283 39.7074 63.0841 40.5502C64.0398 41.393 64.5177 42.5834 64.5177 44.1215C64.5177 44.5055 64.2039 44.8168 63.8168 44.8168H62.5425C61.4515 44.8168 60.7667 43.8219 60.15 42.9292C60.1406 42.9155 60.1309 42.9021 60.1212 42.8889C59.845 42.4675 59.3459 42.2568 58.6238 42.2568C58.0715 42.2568 57.583 42.4149 57.1582 42.7309C56.7547 43.0259 56.5529 43.4789 56.5529 44.0899C56.5529 44.5113 56.6803 44.8906 56.9352 45.2277C57.2113 45.5648 57.7211 45.8492 58.4645 46.081L61.1088 46.9659C62.4894 47.4295 63.4664 48.0405 64.0398 48.799C64.6133 49.5365 64.9 50.5478 64.9 51.8331C64.9 52.7391 64.7407 53.5292 64.4222 54.2034C64.1036 54.8566 63.6575 55.4044 63.0841 55.8469C62.5318 56.2893 61.8628 56.6054 61.0769 56.795C60.3123 56.9846 59.4627 57.0794 58.5282 57.0794C57.2963 57.0794 56.2662 56.9636 55.4378 56.7318C54.6307 56.5 53.9829 56.1524 53.4944 55.6888C53.0271 55.2253 52.6979 54.667 52.5068 54.0138C52.3156 53.3396 52.22 52.5916 52.22 51.7699C52.22 51.4382 52.4911 51.1694 52.8254 51.1694H55.5971Z" fill="black"/>
<path d="M66.9535 33.0746C66.9535 31.8702 67.9377 30.8939 69.1517 30.8939C70.3658 30.8939 71.35 31.8702 71.35 33.0746V38.4643C71.35 39.1625 71.9206 39.7285 72.6244 39.7285C73.3282 39.7285 73.8988 40.2945 73.8988 40.9927V41.4351C73.8988 42.1333 73.3282 42.6993 72.6244 42.6993C71.9206 42.6993 71.35 43.2653 71.35 43.9635V51.8963C71.35 52.5705 71.4456 53.0551 71.6368 53.3501C71.8492 53.624 72.274 53.761 72.9111 53.761C73.0811 53.761 73.251 53.761 73.4209 53.761C73.6734 53.7296 73.8988 53.9236 73.8988 54.176V55.3226C73.8988 56.1009 73.2489 56.7281 72.4651 56.7634C72.0191 56.8055 71.5412 56.8266 71.0314 56.8266C70.1819 56.8266 69.481 56.7739 68.9287 56.6686C68.3977 56.5422 67.9836 56.3104 67.6862 55.9733C67.4101 55.6151 67.2189 55.1516 67.1128 54.5827C67.0066 54.0138 66.9535 53.2974 66.9535 52.4336V43.8055C66.9535 43.1945 66.4542 42.6993 65.8384 42.6993C65.2225 42.6993 64.7233 42.2041 64.7233 41.5931V40.8346C64.7233 40.2237 65.2225 39.7285 65.8384 39.7285C66.4542 39.7285 66.9535 39.2332 66.9535 38.6223V33.0746Z" fill="black"/>
<path fill-rule="evenodd" clip-rule="evenodd" d="M23.9058 48.2301C23.9058 46.7763 24.0226 45.4911 24.2563 44.3744C24.4899 43.2577 24.8722 42.3306 25.4032 41.5931C25.9342 40.8346 26.6245 40.2657 27.4741 39.8865C28.3449 39.4862 29.4069 39.286 30.66 39.286C31.6399 39.2703 34.6187 39.278 36.0791 39.2829C36.6298 39.2848 37.1775 39.2851 37.7283 39.2837C39.6045 39.2789 44.1118 39.2694 45.1477 39.286C46.4008 39.286 47.4628 39.4862 48.3336 39.8865C49.1832 40.2657 49.8735 40.8346 50.4045 41.5931C50.9355 42.3306 51.3178 43.2577 51.5514 44.3744C51.7851 45.4911 51.9019 46.7763 51.9019 48.2301C51.9019 49.705 51.7957 51.0113 51.5833 52.1491C51.3709 53.2658 51.0098 54.2034 50.5001 54.9619C49.9903 55.6994 49.3 56.2472 48.4292 56.6054C47.5584 56.9425 46.4646 57.1005 45.1477 57.0794H36.904H30.66C29.3431 57.1005 28.2493 56.9425 27.3785 56.6054C26.5077 56.2472 25.8174 55.6994 25.3076 54.9619C24.7979 54.2034 24.4368 53.2658 24.2244 52.1491C24.012 51.0113 23.9058 49.705 23.9058 48.2301ZM28.3661 50.6321C28.3236 49.8946 28.3024 49.094 28.3024 48.2301C28.3024 47.3663 28.3236 46.5656 28.3661 45.8282C28.4086 45.0907 28.5042 44.4586 28.6529 43.9319C28.8228 43.4051 29.067 42.9943 29.3856 42.6993C29.7042 42.4043 30.129 42.2568 30.66 42.2568H45.1477C45.6787 42.2568 46.1035 42.4043 46.4221 42.6993C46.7407 42.9943 46.9849 43.4051 47.1548 43.9319C47.3035 44.4586 47.3991 45.0907 47.4416 45.8282C47.4841 46.5656 47.5053 47.3663 47.5053 48.2301C47.5053 49.094 47.4841 49.8946 47.4416 50.6321C47.3991 51.3695 47.3035 52.0016 47.1548 52.5284C46.9849 53.0551 46.7407 53.466 46.4221 53.761C46.1035 54.0559 45.6787 54.2034 45.1477 54.2034H36.904H30.66C30.129 54.2034 29.7042 54.0559 29.3856 53.761C29.067 53.466 28.8228 53.0551 28.6529 52.5284C28.5042 52.0016 28.4086 51.3695 28.3661 50.6321Z" fill="black"/>
<path d="M36.3766 45.3138C36.3919 44.4879 37.0711 43.8262 37.9038 43.8262C38.7322 43.8262 39.4036 44.4923 39.4036 45.314V51.271C39.4036 52.1382 38.6949 52.8413 37.8207 52.8413C36.9512 52.8413 36.2509 52.1337 36.2668 51.2713L36.3766 45.3138Z" fill="black"/>
</svg>
