<svg width="32" height="32" viewBox="0 0 32 32" fill="none" xmlns="http://www.w3.org/2000/svg">
<g id="icon32/mail">
<mask id="mask0_495_2279" style="mask-type:alpha" maskUnits="userSpaceOnUse" x="0" y="0" width="32" height="32">
<rect id="Bounding box" width="32" height="32" fill="#D9D9D9"/>
</mask>
<g mask="url(#mask0_495_2279)">
<path id="mail" d="M5.33366 26.6667C4.60033 26.6667 3.97255 26.4056 3.45033 25.8834C2.9281 25.3612 2.66699 24.7334 2.66699 24V8.00004C2.66699 7.26671 2.9281 6.63893 3.45033 6.11671C3.97255 5.59449 4.60033 5.33337 5.33366 5.33337H26.667C27.4003 5.33337 28.0281 5.59449 28.5503 6.11671C29.0725 6.63893 29.3337 7.26671 29.3337 8.00004V24C29.3337 24.7334 29.0725 25.3612 28.5503 25.8834C28.0281 26.4056 27.4003 26.6667 26.667 26.6667H5.33366ZM16.0003 17.3334L26.667 10.6667V8.00004L16.0003 14.6667L5.33366 8.00004V10.6667L16.0003 17.3334Z" fill="white"/>
</g>
</g>
</svg>
