<svg width="28" height="28" viewBox="0 0 28 28" fill="none" xmlns="http://www.w3.org/2000/svg">
<g id="icon/new_releases">
<mask id="mask0_1301_7362" style="mask-type:alpha" maskUnits="userSpaceOnUse" x="0" y="0" width="28" height="28">
<rect id="Bounding box" width="28" height="28" fill="#D9D9D9"/>
</mask>
<g mask="url(#mask0_1301_7362)">
<path id="new_releases" d="M9.50742 25.375L7.81575 22.5167L4.60742 21.8167C4.31576 21.7584 4.08242 21.6077 3.90742 21.3646C3.73242 21.1215 3.66437 20.8542 3.70326 20.5625L4.02409 17.2667L1.83659 14.7583C1.64214 14.5445 1.54492 14.2917 1.54492 14C1.54492 13.7083 1.64214 13.4556 1.83659 13.2417L4.02409 10.7333L3.70326 7.43752C3.66437 7.14585 3.73242 6.87849 3.90742 6.63543C4.08242 6.39238 4.31576 6.24168 4.60742 6.18335L7.81575 5.48335L9.50742 2.62502C9.66298 2.37224 9.87687 2.2021 10.1491 2.1146C10.4213 2.0271 10.6935 2.04168 10.9658 2.15835L13.9991 3.44168L17.0324 2.15835C17.3046 2.04168 17.5769 2.0271 17.8491 2.1146C18.1213 2.2021 18.3352 2.37224 18.4908 2.62502L20.1824 5.48335L23.3908 6.18335C23.6824 6.24168 23.9158 6.39238 24.0908 6.63543C24.2658 6.87849 24.3338 7.14585 24.2949 7.43752L23.9741 10.7333L26.1616 13.2417C26.356 13.4556 26.4533 13.7083 26.4533 14C26.4533 14.2917 26.356 14.5445 26.1616 14.7583L23.9741 17.2667L24.2949 20.5625C24.3338 20.8542 24.2658 21.1215 24.0908 21.3646C23.9158 21.6077 23.6824 21.7584 23.3908 21.8167L20.1824 22.5167L18.4908 25.375C18.3352 25.6278 18.1213 25.7979 17.8491 25.8854C17.5769 25.9729 17.3046 25.9584 17.0324 25.8417L13.9991 24.5583L10.9658 25.8417C10.6935 25.9584 10.4213 25.9729 10.1491 25.8854C9.87687 25.7979 9.66298 25.6278 9.50742 25.375ZM12.7741 14.8167L11.0824 13.1542C10.8685 12.9403 10.6012 12.8333 10.2803 12.8333C9.95951 12.8333 9.68242 12.95 9.44909 13.1833C9.2352 13.3972 9.12825 13.6695 9.12825 14C9.12825 14.3306 9.2352 14.6028 9.44909 14.8167L11.9574 17.325C12.1908 17.5584 12.463 17.675 12.7741 17.675C13.0852 17.675 13.3574 17.5584 13.5908 17.325L18.5491 12.3667C18.7824 12.1333 18.8942 11.8611 18.8845 11.55C18.8748 11.2389 18.763 10.9667 18.5491 10.7333C18.3158 10.5 18.0387 10.3785 17.7178 10.3688C17.397 10.359 17.1199 10.4708 16.8866 10.7042L12.7741 14.8167Z" fill="#FFC700"/>
</g>
</g>
</svg>
