<svg width="33" height="32" viewBox="0 0 33 32" fill="none" xmlns="http://www.w3.org/2000/svg">
<g id="icon/newsmode">
<mask id="mask0_1580_8865" style="mask-type:alpha" maskUnits="userSpaceOnUse" x="0" y="0" width="33" height="32">
<rect id="Bounding box" x="0.5" width="32" height="32" fill="#D9D9D9"/>
</mask>
<g mask="url(#mask0_1580_8865)">
<path id="newsmode" d="M5.83366 28C5.10033 28 4.47255 27.7389 3.95033 27.2167C3.4281 26.6944 3.16699 26.0667 3.16699 25.3333V6.66667C3.16699 5.93333 3.4281 5.30556 3.95033 4.78333C4.47255 4.26111 5.10033 4 5.83366 4H27.167C27.9003 4 28.5281 4.26111 29.0503 4.78333C29.5725 5.30556 29.8337 5.93333 29.8337 6.66667V25.3333C29.8337 26.0667 29.5725 26.6944 29.0503 27.2167C28.5281 27.7389 27.9003 28 27.167 28H5.83366ZM5.83366 25.3333H27.167V6.66667H5.83366V25.3333ZM8.50033 22.6667H24.5003V20H8.50033V22.6667ZM8.50033 17.3333H13.8337V9.33333H8.50033V17.3333ZM16.5003 17.3333H24.5003V14.6667H16.5003V17.3333ZM16.5003 12H24.5003V9.33333H16.5003V12Z" fill="white"/>
</g>
</g>
</svg>
