<svg width="20" height="20" viewBox="0 0 20 20" fill="none" xmlns="http://www.w3.org/2000/svg">
<mask id="mask0_427_53" style="mask-type:alpha" maskUnits="userSpaceOnUse" x="0" y="0" width="20" height="20">
<rect width="20" height="20" fill="#D9D9D9"/>
</mask>
<g mask="url(#mask0_427_53)">
<path d="M4.16671 15.8332C3.9306 15.8332 3.73268 15.7533 3.57296 15.5936C3.41324 15.4339 3.33337 15.2359 3.33337 14.9998C3.33337 14.7637 3.41324 14.5658 3.57296 14.4061C3.73268 14.2464 3.9306 14.1665 4.16671 14.1665H5.00004V8.33317C5.00004 7.18039 5.34726 6.15609 6.04171 5.26025C6.73615 4.36442 7.63893 3.77762 8.75004 3.49984V2.9165C8.75004 2.56928 8.87157 2.27414 9.11462 2.03109C9.35768 1.78803 9.65282 1.6665 10 1.6665C10.3473 1.6665 10.6424 1.78803 10.8855 2.03109C11.1285 2.27414 11.25 2.56928 11.25 2.9165V3.49984C12.3612 3.77762 13.2639 4.36442 13.9584 5.26025C14.6528 6.15609 15 7.18039 15 8.33317V14.1665H15.8334C16.0695 14.1665 16.2674 14.2464 16.4271 14.4061C16.5868 14.5658 16.6667 14.7637 16.6667 14.9998C16.6667 15.2359 16.5868 15.4339 16.4271 15.5936C16.2674 15.7533 16.0695 15.8332 15.8334 15.8332H4.16671ZM10 18.3332C9.54171 18.3332 9.14935 18.17 8.82296 17.8436C8.49657 17.5172 8.33337 17.1248 8.33337 16.6665H11.6667C11.6667 17.1248 11.5035 17.5172 11.1771 17.8436C10.8507 18.17 10.4584 18.3332 10 18.3332ZM6.66671 14.1665H13.3334V8.33317C13.3334 7.4165 13.007 6.63178 12.3542 5.979C11.7014 5.32623 10.9167 4.99984 10 4.99984C9.08337 4.99984 8.29865 5.32623 7.64587 5.979C6.9931 6.63178 6.66671 7.4165 6.66671 8.33317V14.1665Z" fill="white"/>
</g>
</svg>
