<svg width="28" height="28" viewBox="0 0 28 28" fill="none" xmlns="http://www.w3.org/2000/svg">
<mask id="mask0_427_506" style="mask-type:alpha" maskUnits="userSpaceOnUse" x="0" y="0" width="28" height="28">
<rect width="28" height="28" fill="#D9D9D9"/>
</mask>
<g mask="url(#mask0_427_506)">
<path d="M17.8792 18.9875C17.6653 18.7347 17.5583 18.4479 17.5583 18.1271C17.5583 17.8062 17.6653 17.5389 17.8792 17.325L20.0375 15.1667H11.6667C11.3361 15.1667 11.059 15.0549 10.8354 14.8313C10.6118 14.6076 10.5 14.3306 10.5 14C10.5 13.6694 10.6118 13.3924 10.8354 13.1687C11.059 12.9451 11.3361 12.8333 11.6667 12.8333H20.0375L17.8792 10.675C17.6458 10.4417 17.5292 10.1646 17.5292 9.84375C17.5292 9.52292 17.6458 9.24583 17.8792 9.0125C18.0931 8.77917 18.3604 8.6625 18.6812 8.6625C19.0021 8.6625 19.2694 8.76944 19.4833 8.98333L23.6833 13.1833C23.8 13.3 23.8826 13.4264 23.9312 13.5625C23.9799 13.6986 24.0042 13.8444 24.0042 14C24.0042 14.1556 23.9799 14.3014 23.9312 14.4375C23.8826 14.5736 23.8 14.7 23.6833 14.8167L19.4833 19.0167C19.2306 19.2694 18.9535 19.3813 18.6521 19.3521C18.3507 19.3229 18.0931 19.2014 17.8792 18.9875ZM5.83333 24.5C5.19167 24.5 4.64236 24.2715 4.18542 23.8146C3.72847 23.3576 3.5 22.8083 3.5 22.1667V5.83333C3.5 5.19167 3.72847 4.64236 4.18542 4.18542C4.64236 3.72847 5.19167 3.5 5.83333 3.5H12.8333C13.1639 3.5 13.441 3.61181 13.6646 3.83542C13.8882 4.05903 14 4.33611 14 4.66667C14 4.99722 13.8882 5.27431 13.6646 5.49792C13.441 5.72153 13.1639 5.83333 12.8333 5.83333H5.83333V22.1667H12.8333C13.1639 22.1667 13.441 22.2785 13.6646 22.5021C13.8882 22.7257 14 23.0028 14 23.3333C14 23.6639 13.8882 23.941 13.6646 24.1646C13.441 24.3882 13.1639 24.5 12.8333 24.5H5.83333Z" fill="white"/>
</g>
</svg>
