<svg width="24" height="24" viewBox="0 0 24 24" fill="none" xmlns="http://www.w3.org/2000/svg">
<mask id="mask0_476_1787" style="mask-type:alpha" maskUnits="userSpaceOnUse" x="0" y="0" width="24" height="24">
<rect width="24" height="24" fill="#D9D9D9"/>
</mask>
<g mask="url(#mask0_476_1787)">
<path d="M6 14H8.45L14.35 8.15C14.45 8.05 14.5 7.925 14.5 7.775C14.5 7.625 14.45 7.5 14.35 7.4L12.6 5.65C12.5 5.55 12.375 5.5 12.225 5.5C12.075 5.5 11.95 5.55 11.85 5.65L6 11.55V14ZM10.5 14H18V12H12.5L10.5 14ZM2 22V4C2 3.45 2.19583 2.97917 2.5875 2.5875C2.97917 2.19583 3.45 2 4 2H20C20.55 2 21.0208 2.19583 21.4125 2.5875C21.8042 2.97917 22 3.45 22 4V16C22 16.55 21.8042 17.0208 21.4125 17.4125C21.0208 17.8042 20.55 18 20 18H6L2 22ZM5.15 16H20V4H4V17.125L5.15 16Z" fill="white"/>
</g>
</svg>
