<svg width="32" height="32" viewBox="0 0 32 32" fill="none" xmlns="http://www.w3.org/2000/svg">
<mask id="mask0_362_1269" style="mask-type:alpha" maskUnits="userSpaceOnUse" x="0" y="0" width="32" height="32">
<rect width="32" height="32" fill="#D9D9D9"/>
</mask>
<g mask="url(#mask0_362_1269)">
<path d="M16 29.3334C12.9112 28.5556 10.3612 26.7834 8.35004 24.0167C6.33893 21.2501 5.33337 18.1779 5.33337 14.8001V6.66675L16 2.66675L26.6667 6.66675V14.8001C26.6667 18.1779 25.6612 21.2501 23.65 24.0167C21.6389 26.7834 19.0889 28.5556 16 29.3334ZM16 26.5334C18.3112 25.8001 20.2223 24.3334 21.7334 22.1334C23.2445 19.9334 24 17.489 24 14.8001V8.50008L16 5.50008L8.00004 8.50008V14.8001C8.00004 17.489 8.7556 19.9334 10.2667 22.1334C11.7778 24.3334 13.6889 25.8001 16 26.5334ZM13.3334 21.3334H18.6667C19.0445 21.3334 19.3612 21.2056 19.6167 20.9501C19.8723 20.6945 20 20.3779 20 20.0001V16.0001C20 15.6223 19.8723 15.3056 19.6167 15.0501C19.3612 14.7945 19.0445 14.6667 18.6667 14.6667V13.3334C18.6667 12.6001 18.4056 11.9723 17.8834 11.4501C17.3612 10.9279 16.7334 10.6667 16 10.6667C15.2667 10.6667 14.6389 10.9279 14.1167 11.4501C13.5945 11.9723 13.3334 12.6001 13.3334 13.3334V14.6667C12.9556 14.6667 12.6389 14.7945 12.3834 15.0501C12.1278 15.3056 12 15.6223 12 16.0001V20.0001C12 20.3779 12.1278 20.6945 12.3834 20.9501C12.6389 21.2056 12.9556 21.3334 13.3334 21.3334ZM14.6667 14.6667V13.3334C14.6667 12.9556 14.7945 12.639 15.05 12.3834C15.3056 12.1279 15.6223 12.0001 16 12.0001C16.3778 12.0001 16.6945 12.1279 16.95 12.3834C17.2056 12.639 17.3334 12.9556 17.3334 13.3334V14.6667H14.6667Z" fill="white"/>
</g>
</svg>
