<svg width="25" height="24" viewBox="0 0 25 24" fill="none" xmlns="http://www.w3.org/2000/svg">
<g id="icon/send_money">
<mask id="mask0_929_4990" style="mask-type:alpha" maskUnits="userSpaceOnUse" x="0" y="0" width="25" height="24">
<rect id="Bounding box" x="0.5" width="24" height="24" fill="#D9D9D9"/>
</mask>
<g mask="url(#mask0_929_4990)">
<path id="send_money" d="M6.5 19.75C4.76667 19.3 3.33333 18.3667 2.2 16.95C1.06667 15.5333 0.5 13.8833 0.5 12C0.5 10.1167 1.06667 8.46667 2.2 7.05C3.33333 5.63333 4.76667 4.7 6.5 4.25V6.35C5.31667 6.75 4.35417 7.46667 3.6125 8.5C2.87083 9.53333 2.5 10.7 2.5 12C2.5 13.3 2.87083 14.4667 3.6125 15.5C4.35417 16.5333 5.31667 17.25 6.5 17.65V19.75ZM14.5 20C12.2833 20 10.3958 19.2208 8.8375 17.6625C7.27917 16.1042 6.5 14.2167 6.5 12C6.5 9.78333 7.27917 7.89583 8.8375 6.3375C10.3958 4.77917 12.2833 4 14.5 4C15.6 4 16.6333 4.20833 17.6 4.625C18.5667 5.04167 19.4167 5.61667 20.15 6.35L18.75 7.75C18.2 7.2 17.5625 6.77083 16.8375 6.4625C16.1125 6.15417 15.3333 6 14.5 6C12.8333 6 11.4167 6.58333 10.25 7.75C9.08333 8.91667 8.5 10.3333 8.5 12C8.5 13.6667 9.08333 15.0833 10.25 16.25C11.4167 17.4167 12.8333 18 14.5 18C15.3333 18 16.1125 17.8458 16.8375 17.5375C17.5625 17.2292 18.2 16.8 18.75 16.25L20.15 17.65C19.4167 18.3833 18.5667 18.9583 17.6 19.375C16.6333 19.7917 15.6 20 14.5 20ZM20.5 16L19.1 14.6L20.7 13H13.5V11H20.7L19.1 9.4L20.5 8L24.5 12L20.5 16Z" fill="#181818"/>
</g>
</g>
</svg>
