<svg width="48" height="49" viewBox="0 0 48 49" fill="none" xmlns="http://www.w3.org/2000/svg">
<g id="sentiment_dissatisfied">
<mask id="mask0_605_4891" style="mask-type:alpha" maskUnits="userSpaceOnUse" x="0" y="0" width="48" height="49">
<rect id="Bounding box" y="0.75" width="48" height="48" fill="#D9D9D9"/>
</mask>
<g mask="url(#mask0_605_4891)">
<path id="sentiment_dissatisfied_2" d="M31.3 22.1C32.05 22.1 32.6875 21.8375 33.2125 21.3125C33.7375 20.7875 34 20.15 34 19.4C34 18.65 33.7375 18.0125 33.2125 17.4875C32.6875 16.9625 32.05 16.7 31.3 16.7C30.55 16.7 29.9125 16.9625 29.3875 17.4875C28.8625 18.0125 28.6 18.65 28.6 19.4C28.6 20.15 28.8625 20.7875 29.3875 21.3125C29.9125 21.8375 30.55 22.1 31.3 22.1ZM16.7 22.1C17.45 22.1 18.0875 21.8375 18.6125 21.3125C19.1375 20.7875 19.4 20.15 19.4 19.4C19.4 18.65 19.1375 18.0125 18.6125 17.4875C18.0875 16.9625 17.45 16.7 16.7 16.7C15.95 16.7 15.3125 16.9625 14.7875 17.4875C14.2625 18.0125 14 18.65 14 19.4C14 20.15 14.2625 20.7875 14.7875 21.3125C15.3125 21.8375 15.95 22.1 16.7 22.1ZM24.0087 27.9C21.7696 27.9 19.7417 28.525 17.925 29.775C16.1083 31.025 14.7667 32.6833 13.9 34.75H16.55C17.2833 33.35 18.3196 32.2667 19.6587 31.5C20.9978 30.7333 22.4561 30.35 24.0337 30.35C25.6112 30.35 27.0583 30.7417 28.375 31.525C29.6917 32.3083 30.7333 33.3833 31.5 34.75H34.1C33.2667 32.65 31.9362 30.9833 30.1087 29.75C28.2812 28.5167 26.2478 27.9 24.0087 27.9ZM24 44.75C21.2333 44.75 18.6333 44.225 16.2 43.175C13.7667 42.125 11.65 40.7 9.85 38.9C8.05 37.1 6.625 34.9833 5.575 32.55C4.525 30.1167 4 27.5167 4 24.75C4 21.9833 4.525 19.3833 5.575 16.95C6.625 14.5167 8.05 12.4 9.85 10.6C11.65 8.8 13.7667 7.375 16.2 6.325C18.6333 5.275 21.2333 4.75 24 4.75C26.7667 4.75 29.3667 5.275 31.8 6.325C34.2333 7.375 36.35 8.8 38.15 10.6C39.95 12.4 41.375 14.5167 42.425 16.95C43.475 19.3833 44 21.9833 44 24.75C44 27.5167 43.475 30.1167 42.425 32.55C41.375 34.9833 39.95 37.1 38.15 38.9C36.35 40.7 34.2333 42.125 31.8 43.175C29.3667 44.225 26.7667 44.75 24 44.75Z" fill="#505050"/>
</g>
</g>
</svg>
