<svg width="28" height="28" viewBox="0 0 28 28" fill="none" xmlns="http://www.w3.org/2000/svg">
<mask id="mask0_427_490" style="mask-type:alpha" maskUnits="userSpaceOnUse" x="0" y="0" width="28" height="28">
<rect width="28" height="28" fill="#D9D9D9"/>
</mask>
<g mask="url(#mask0_427_490)">
<path d="M16.1875 25.6668H11.8125C11.5208 25.6668 11.2681 25.5696 11.0542 25.3752C10.8403 25.1807 10.7139 24.9377 10.675 24.646L10.325 21.9335C10.0722 21.8363 9.83404 21.7196 9.61042 21.5835C9.38681 21.4474 9.16806 21.3016 8.95417 21.146L6.41667 22.196C6.14445 22.2932 5.87223 22.3029 5.60001 22.2252C5.32779 22.1474 5.1139 21.9821 4.95834 21.7293L2.80001 17.9668C2.64445 17.7141 2.59584 17.4418 2.65417 17.1502C2.71251 16.8585 2.85834 16.6252 3.09167 16.4502L5.27917 14.7877C5.25973 14.6516 5.25001 14.5203 5.25001 14.3939V13.6064C5.25001 13.48 5.25973 13.3488 5.27917 13.2127L3.09167 11.5502C2.85834 11.3752 2.71251 11.1418 2.65417 10.8502C2.59584 10.5585 2.64445 10.2863 2.80001 10.0335L4.95834 6.271C5.09445 5.99877 5.30348 5.82864 5.58542 5.76058C5.86737 5.69252 6.14445 5.70711 6.41667 5.80433L8.95417 6.85433C9.16806 6.69877 9.39167 6.55294 9.62501 6.41683C9.85834 6.28072 10.0917 6.16405 10.325 6.06683L10.675 3.35433C10.7139 3.06266 10.8403 2.81961 11.0542 2.62516C11.2681 2.43072 11.5208 2.3335 11.8125 2.3335H16.1875C16.4792 2.3335 16.732 2.43072 16.9458 2.62516C17.1597 2.81961 17.2861 3.06266 17.325 3.35433L17.675 6.06683C17.9278 6.16405 18.166 6.28072 18.3896 6.41683C18.6132 6.55294 18.832 6.69877 19.0458 6.85433L21.5833 5.80433C21.8556 5.70711 22.1278 5.69739 22.4 5.77516C22.6722 5.85294 22.8861 6.01822 23.0417 6.271L25.2 10.0335C25.3556 10.2863 25.4042 10.5585 25.3458 10.8502C25.2875 11.1418 25.1417 11.3752 24.9083 11.5502L22.7208 13.2127C22.7403 13.3488 22.75 13.48 22.75 13.6064V14.3939C22.75 14.5203 22.7306 14.6516 22.6917 14.7877L24.8792 16.4502C25.1125 16.6252 25.2583 16.8585 25.3167 17.1502C25.375 17.4418 25.3264 17.7141 25.1708 17.9668L23.0125 21.7002C22.857 21.9529 22.6382 22.1231 22.3563 22.2106C22.0743 22.2981 21.7972 22.2932 21.525 22.196L19.0458 21.146C18.832 21.3016 18.6083 21.4474 18.375 21.5835C18.1417 21.7196 17.9083 21.8363 17.675 21.9335L17.325 24.646C17.2861 24.9377 17.1597 25.1807 16.9458 25.3752C16.732 25.5696 16.4792 25.6668 16.1875 25.6668ZM14.0583 18.0835C15.1861 18.0835 16.1486 17.6849 16.9458 16.8877C17.7431 16.0904 18.1417 15.1279 18.1417 14.0002C18.1417 12.8724 17.7431 11.9099 16.9458 11.1127C16.1486 10.3154 15.1861 9.91683 14.0583 9.91683C12.9111 9.91683 11.9438 10.3154 11.1563 11.1127C10.3688 11.9099 9.97501 12.8724 9.97501 14.0002C9.97501 15.1279 10.3688 16.0904 11.1563 16.8877C11.9438 17.6849 12.9111 18.0835 14.0583 18.0835ZM14.0583 15.7502C13.5722 15.7502 13.159 15.58 12.8188 15.2397C12.4785 14.8995 12.3083 14.4863 12.3083 14.0002C12.3083 13.5141 12.4785 13.1009 12.8188 12.7606C13.159 12.4203 13.5722 12.2502 14.0583 12.2502C14.5445 12.2502 14.9576 12.4203 15.2979 12.7606C15.6382 13.1009 15.8083 13.5141 15.8083 14.0002C15.8083 14.4863 15.6382 14.8995 15.2979 15.2397C14.9576 15.58 14.5445 15.7502 14.0583 15.7502ZM12.8333 23.3335H15.1375L15.5458 20.2418C16.1486 20.0863 16.7076 19.8578 17.2229 19.5564C17.7382 19.255 18.2097 18.8904 18.6375 18.4627L21.525 19.6585L22.6625 17.6752L20.1542 15.7793C20.2514 15.5071 20.3195 15.2203 20.3583 14.9189C20.3972 14.6175 20.4167 14.3113 20.4167 14.0002C20.4167 13.6891 20.3972 13.3828 20.3583 13.0814C20.3195 12.78 20.2514 12.4932 20.1542 12.221L22.6625 10.3252L21.525 8.34183L18.6375 9.56683C18.2097 9.11961 17.7382 8.7453 17.2229 8.44391C16.7076 8.14252 16.1486 7.91405 15.5458 7.7585L15.1667 4.66683H12.8625L12.4542 7.7585C11.8514 7.91405 11.2924 8.14252 10.7771 8.44391C10.2618 8.7453 9.79029 9.10989 9.36251 9.53766L6.47501 8.34183L5.33751 10.3252L7.84584 12.1918C7.74862 12.4835 7.68056 12.7752 7.64167 13.0668C7.60279 13.3585 7.58334 13.6696 7.58334 14.0002C7.58334 14.3113 7.60279 14.6127 7.64167 14.9043C7.68056 15.196 7.74862 15.4877 7.84584 15.7793L5.33751 17.6752L6.47501 19.6585L9.36251 18.4335C9.79029 18.8807 10.2618 19.255 10.7771 19.5564C11.2924 19.8578 11.8514 20.0863 12.4542 20.2418L12.8333 23.3335Z" fill="white"/>
</g>
</svg>
