<svg width="33" height="32" viewBox="0 0 33 32" fill="none" xmlns="http://www.w3.org/2000/svg">
<g id="icon/shield_lock">
<mask id="mask0_1309_4011" style="mask-type:alpha" maskUnits="userSpaceOnUse" x="0" y="0" width="33" height="32">
<rect id="Bounding box" x="0.333008" width="32" height="32" fill="#D9D9D9"/>
</mask>
<g mask="url(#mask0_1309_4011)">
<path id="shield_lock" d="M16.3332 29.3337C13.2443 28.5559 10.6943 26.7837 8.68317 24.017C6.67206 21.2503 5.6665 18.1781 5.6665 14.8003V6.66699L16.3332 2.66699L26.9998 6.66699V14.8003C26.9998 18.1781 25.9943 21.2503 23.9832 24.017C21.9721 26.7837 19.4221 28.5559 16.3332 29.3337ZM16.3332 26.5337C18.6443 25.8003 20.5554 24.3337 22.0665 22.1337C23.5776 19.9337 24.3332 17.4892 24.3332 14.8003V8.50033L16.3332 5.50033L8.33317 8.50033V14.8003C8.33317 17.4892 9.08873 19.9337 10.5998 22.1337C12.1109 24.3337 14.0221 25.8003 16.3332 26.5337ZM13.6665 21.3337H18.9998C19.3776 21.3337 19.6943 21.2059 19.9498 20.9503C20.2054 20.6948 20.3332 20.3781 20.3332 20.0003V16.0003C20.3332 15.6225 20.2054 15.3059 19.9498 15.0503C19.6943 14.7948 19.3776 14.667 18.9998 14.667V13.3337C18.9998 12.6003 18.7387 11.9725 18.2165 11.4503C17.6943 10.9281 17.0665 10.667 16.3332 10.667C15.5998 10.667 14.9721 10.9281 14.4498 11.4503C13.9276 11.9725 13.6665 12.6003 13.6665 13.3337V14.667C13.2887 14.667 12.9721 14.7948 12.7165 15.0503C12.4609 15.3059 12.3332 15.6225 12.3332 16.0003V20.0003C12.3332 20.3781 12.4609 20.6948 12.7165 20.9503C12.9721 21.2059 13.2887 21.3337 13.6665 21.3337ZM14.9998 14.667V13.3337C14.9998 12.9559 15.1276 12.6392 15.3832 12.3837C15.6387 12.1281 15.9554 12.0003 16.3332 12.0003C16.7109 12.0003 17.0276 12.1281 17.2832 12.3837C17.5387 12.6392 17.6665 12.9559 17.6665 13.3337V14.667H14.9998Z" fill="white"/>
</g>
</g>
</svg>
