<svg width="0" height="0" class="hidden">
    <symbol xmlns="http://www.w3.org/2000/svg" viewBox="0 0 32 32" id="list_alt">
        <g id="icon/list_alt">
            <mask id="mask0_839_3421" maskUnits="userSpaceOnUse" x="0" y="0" width="32" height="32">
                <rect id="Bounding box" width="32" height="32"></rect>
            </mask>
            <g mask="url(#mask0_839_3421)">
                <path id="list_alt"
                    d="M12 21C12.2833 21 12.5208 20.9042 12.7125 20.7125C12.9042 20.5208 13 20.2833 13 20C13 19.7167 12.9042 19.4792 12.7125 19.2875C12.5208 19.0958 12.2833 19 12 19C11.7167 19 11.4792 19.0958 11.2875 19.2875C11.0958 19.4792 11 19.7167 11 20C11 20.2833 11.0958 20.5208 11.2875 20.7125C11.4792 20.9042 11.7167 21 12 21ZM12 17C12.2833 17 12.5208 16.9042 12.7125 16.7125C12.9042 16.5208 13 16.2833 13 16C13 15.7167 12.9042 15.4792 12.7125 15.2875C12.5208 15.0958 12.2833 15 12 15C11.7167 15 11.4792 15.0958 11.2875 15.2875C11.0958 15.4792 11 15.7167 11 16C11 16.2833 11.0958 16.5208 11.2875 16.7125C11.4792 16.9042 11.7167 17 12 17ZM12 13C12.2833 13 12.5208 12.9042 12.7125 12.7125C12.9042 12.5208 13 12.2833 13 12C13 11.7167 12.9042 11.4792 12.7125 11.2875C12.5208 11.0958 12.2833 11 12 11C11.7167 11 11.4792 11.0958 11.2875 11.2875C11.0958 11.4792 11 11.7167 11 12C11 12.2833 11.0958 12.5208 11.2875 12.7125C11.4792 12.9042 11.7167 13 12 13ZM15 21H21V19H15V21ZM15 17H21V15H15V17ZM15 13H21V11H15V13ZM9 25C8.45 25 7.97917 24.8042 7.5875 24.4125C7.19583 24.0208 7 23.55 7 23V9C7 8.45 7.19583 7.97917 7.5875 7.5875C7.97917 7.19583 8.45 7 9 7H23C23.55 7 24.0208 7.19583 24.4125 7.5875C24.8042 7.97917 25 8.45 25 9V23C25 23.55 24.8042 24.0208 24.4125 24.4125C24.0208 24.8042 23.55 25 23 25H9ZM9 23H23V9H9V23Z">
                </path>
            </g>
        </g>
    </symbol>
    <symbol xmlns="http://www.w3.org/2000/svg" viewBox="0 0 28 28" id="out">
        <mask id="mask0_427_506" maskUnits="userSpaceOnUse" x="0" y="0" width="28" height="28">
            <rect width="28" height="28"></rect>
        </mask>
        <g mask="url(#mask0_427_506)">
            <path
                d="M17.8792 18.9875C17.6653 18.7347 17.5583 18.4479 17.5583 18.1271C17.5583 17.8062 17.6653 17.5389 17.8792 17.325L20.0375 15.1667H11.6667C11.3361 15.1667 11.059 15.0549 10.8354 14.8313C10.6118 14.6076 10.5 14.3306 10.5 14C10.5 13.6694 10.6118 13.3924 10.8354 13.1687C11.059 12.9451 11.3361 12.8333 11.6667 12.8333H20.0375L17.8792 10.675C17.6458 10.4417 17.5292 10.1646 17.5292 9.84375C17.5292 9.52292 17.6458 9.24583 17.8792 9.0125C18.0931 8.77917 18.3604 8.6625 18.6812 8.6625C19.0021 8.6625 19.2694 8.76944 19.4833 8.98333L23.6833 13.1833C23.8 13.3 23.8826 13.4264 23.9312 13.5625C23.9799 13.6986 24.0042 13.8444 24.0042 14C24.0042 14.1556 23.9799 14.3014 23.9312 14.4375C23.8826 14.5736 23.8 14.7 23.6833 14.8167L19.4833 19.0167C19.2306 19.2694 18.9535 19.3813 18.6521 19.3521C18.3507 19.3229 18.0931 19.2014 17.8792 18.9875ZM5.83333 24.5C5.19167 24.5 4.64236 24.2715 4.18542 23.8146C3.72847 23.3576 3.5 22.8083 3.5 22.1667V5.83333C3.5 5.19167 3.72847 4.64236 4.18542 4.18542C4.64236 3.72847 5.19167 3.5 5.83333 3.5H12.8333C13.1639 3.5 13.441 3.61181 13.6646 3.83542C13.8882 4.05903 14 4.33611 14 4.66667C14 4.99722 13.8882 5.27431 13.6646 5.49792C13.441 5.72153 13.1639 5.83333 12.8333 5.83333H5.83333V22.1667H12.8333C13.1639 22.1667 13.441 22.2785 13.6646 22.5021C13.8882 22.7257 14 23.0028 14 23.3333C14 23.6639 13.8882 23.941 13.6646 24.1646C13.441 24.3882 13.1639 24.5 12.8333 24.5H5.83333Z">
            </path>
        </g>
    </symbol>
    <symbol xmlns="http://www.w3.org/2000/svg" viewBox="0 0 32 32" id="report">
        <g id="icon/headset_mic">
            <mask id="mask0_845_3440" maskUnits="userSpaceOnUse" x="0" y="0" width="32" height="32">
                <rect id="Bounding box" width="32" height="32"></rect>
            </mask>
            <g mask="url(#mask0_845_3440)">
                <path id="headset_mic"
                    d="M16 30.6667V28H25.3333V26.6667H20V16H25.3333V14.6667C25.3333 12.0889 24.4222 9.88888 22.6 8.06666C20.7778 6.24443 18.5778 5.33332 16 5.33332C13.4222 5.33332 11.2222 6.24443 9.4 8.06666C7.57778 9.88888 6.66667 12.0889 6.66667 14.6667V16H12V26.6667H6.66667C5.93333 26.6667 5.30556 26.4055 4.78333 25.8833C4.26111 25.3611 4 24.7333 4 24V14.6667C4 13.0222 4.31667 11.4722 4.95 10.0167C5.58333 8.5611 6.44444 7.28888 7.53333 6.19999C8.62222 5.1111 9.89444 4.24999 11.35 3.61666C12.8056 2.98332 14.3556 2.66666 16 2.66666C17.6444 2.66666 19.1944 2.98332 20.65 3.61666C22.1056 4.24999 23.3778 5.1111 24.4667 6.19999C25.5556 7.28888 26.4167 8.5611 27.05 10.0167C27.6833 11.4722 28 13.0222 28 14.6667V28C28 28.7333 27.7389 29.3611 27.2167 29.8833C26.6944 30.4055 26.0667 30.6667 25.3333 30.6667H16ZM6.66667 24H9.33333V18.6667H6.66667V24ZM22.6667 24H25.3333V18.6667H22.6667V24Z">
                </path>
            </g>
        </g>
    </symbol>
    <symbol xmlns="http://www.w3.org/2000/svg" viewBox="0 0 28 28" id="settings">
        <mask id="mask0_427_490" maskUnits="userSpaceOnUse" x="0" y="0" width="28" height="28">
            <rect width="28" height="28"></rect>
        </mask>
        <g mask="url(#mask0_427_490)">
            <path
                d="M16.1875 25.6668H11.8125C11.5208 25.6668 11.2681 25.5696 11.0542 25.3752C10.8403 25.1807 10.7139 24.9377 10.675 24.646L10.325 21.9335C10.0722 21.8363 9.83404 21.7196 9.61042 21.5835C9.38681 21.4474 9.16806 21.3016 8.95417 21.146L6.41667 22.196C6.14445 22.2932 5.87223 22.3029 5.60001 22.2252C5.32779 22.1474 5.1139 21.9821 4.95834 21.7293L2.80001 17.9668C2.64445 17.7141 2.59584 17.4418 2.65417 17.1502C2.71251 16.8585 2.85834 16.6252 3.09167 16.4502L5.27917 14.7877C5.25973 14.6516 5.25001 14.5203 5.25001 14.3939V13.6064C5.25001 13.48 5.25973 13.3488 5.27917 13.2127L3.09167 11.5502C2.85834 11.3752 2.71251 11.1418 2.65417 10.8502C2.59584 10.5585 2.64445 10.2863 2.80001 10.0335L4.95834 6.271C5.09445 5.99877 5.30348 5.82864 5.58542 5.76058C5.86737 5.69252 6.14445 5.70711 6.41667 5.80433L8.95417 6.85433C9.16806 6.69877 9.39167 6.55294 9.62501 6.41683C9.85834 6.28072 10.0917 6.16405 10.325 6.06683L10.675 3.35433C10.7139 3.06266 10.8403 2.81961 11.0542 2.62516C11.2681 2.43072 11.5208 2.3335 11.8125 2.3335H16.1875C16.4792 2.3335 16.732 2.43072 16.9458 2.62516C17.1597 2.81961 17.2861 3.06266 17.325 3.35433L17.675 6.06683C17.9278 6.16405 18.166 6.28072 18.3896 6.41683C18.6132 6.55294 18.832 6.69877 19.0458 6.85433L21.5833 5.80433C21.8556 5.70711 22.1278 5.69739 22.4 5.77516C22.6722 5.85294 22.8861 6.01822 23.0417 6.271L25.2 10.0335C25.3556 10.2863 25.4042 10.5585 25.3458 10.8502C25.2875 11.1418 25.1417 11.3752 24.9083 11.5502L22.7208 13.2127C22.7403 13.3488 22.75 13.48 22.75 13.6064V14.3939C22.75 14.5203 22.7306 14.6516 22.6917 14.7877L24.8792 16.4502C25.1125 16.6252 25.2583 16.8585 25.3167 17.1502C25.375 17.4418 25.3264 17.7141 25.1708 17.9668L23.0125 21.7002C22.857 21.9529 22.6382 22.1231 22.3563 22.2106C22.0743 22.2981 21.7972 22.2932 21.525 22.196L19.0458 21.146C18.832 21.3016 18.6083 21.4474 18.375 21.5835C18.1417 21.7196 17.9083 21.8363 17.675 21.9335L17.325 24.646C17.2861 24.9377 17.1597 25.1807 16.9458 25.3752C16.732 25.5696 16.4792 25.6668 16.1875 25.6668ZM14.0583 18.0835C15.1861 18.0835 16.1486 17.6849 16.9458 16.8877C17.7431 16.0904 18.1417 15.1279 18.1417 14.0002C18.1417 12.8724 17.7431 11.9099 16.9458 11.1127C16.1486 10.3154 15.1861 9.91683 14.0583 9.91683C12.9111 9.91683 11.9438 10.3154 11.1563 11.1127C10.3688 11.9099 9.97501 12.8724 9.97501 14.0002C9.97501 15.1279 10.3688 16.0904 11.1563 16.8877C11.9438 17.6849 12.9111 18.0835 14.0583 18.0835ZM14.0583 15.7502C13.5722 15.7502 13.159 15.58 12.8188 15.2397C12.4785 14.8995 12.3083 14.4863 12.3083 14.0002C12.3083 13.5141 12.4785 13.1009 12.8188 12.7606C13.159 12.4203 13.5722 12.2502 14.0583 12.2502C14.5445 12.2502 14.9576 12.4203 15.2979 12.7606C15.6382 13.1009 15.8083 13.5141 15.8083 14.0002C15.8083 14.4863 15.6382 14.8995 15.2979 15.2397C14.9576 15.58 14.5445 15.7502 14.0583 15.7502ZM12.8333 23.3335H15.1375L15.5458 20.2418C16.1486 20.0863 16.7076 19.8578 17.2229 19.5564C17.7382 19.255 18.2097 18.8904 18.6375 18.4627L21.525 19.6585L22.6625 17.6752L20.1542 15.7793C20.2514 15.5071 20.3195 15.2203 20.3583 14.9189C20.3972 14.6175 20.4167 14.3113 20.4167 14.0002C20.4167 13.6891 20.3972 13.3828 20.3583 13.0814C20.3195 12.78 20.2514 12.4932 20.1542 12.221L22.6625 10.3252L21.525 8.34183L18.6375 9.56683C18.2097 9.11961 17.7382 8.7453 17.2229 8.44391C16.7076 8.14252 16.1486 7.91405 15.5458 7.7585L15.1667 4.66683H12.8625L12.4542 7.7585C11.8514 7.91405 11.2924 8.14252 10.7771 8.44391C10.2618 8.7453 9.79029 9.10989 9.36251 9.53766L6.47501 8.34183L5.33751 10.3252L7.84584 12.1918C7.74862 12.4835 7.68056 12.7752 7.64167 13.0668C7.60279 13.3585 7.58334 13.6696 7.58334 14.0002C7.58334 14.3113 7.60279 14.6127 7.64167 14.9043C7.68056 15.196 7.74862 15.4877 7.84584 15.7793L5.33751 17.6752L6.47501 19.6585L9.36251 18.4335C9.79029 18.8807 10.2618 19.255 10.7771 19.5564C11.2924 19.8578 11.8514 20.0863 12.4542 20.2418L12.8333 23.3335Z">
            </path>
        </g>
    </symbol>
    <symbol xmlns="http://www.w3.org/2000/svg" viewBox="0 0 32 32" id="help">
        <g id="icon/help">
            <mask id="mask0_845_3434" maskUnits="userSpaceOnUse" x="0" y="0" width="32" height="32">
                <rect id="Bounding box" width="32" height="32"></rect>
            </mask>
            <g mask="url(#mask0_845_3434)">
                <path id="help"
                    d="M15.9334 24C16.4001 24 16.7945 23.8389 17.1167 23.5167C17.439 23.1944 17.6001 22.8 17.6001 22.3333C17.6001 21.8667 17.439 21.4722 17.1167 21.15C16.7945 20.8278 16.4001 20.6667 15.9334 20.6667C15.4667 20.6667 15.0723 20.8278 14.7501 21.15C14.4279 21.4722 14.2667 21.8667 14.2667 22.3333C14.2667 22.8 14.4279 23.1944 14.7501 23.5167C15.0723 23.8389 15.4667 24 15.9334 24ZM16.0001 29.3333C14.1556 29.3333 12.4223 28.9833 10.8001 28.2833C9.17786 27.5833 7.76675 26.6333 6.56675 25.4333C5.36675 24.2333 4.41675 22.8222 3.71675 21.2C3.01675 19.5778 2.66675 17.8444 2.66675 16C2.66675 14.1555 3.01675 12.4222 3.71675 10.8C4.41675 9.17777 5.36675 7.76666 6.56675 6.56666C7.76675 5.36666 9.17786 4.41666 10.8001 3.71666C12.4223 3.01666 14.1556 2.66666 16.0001 2.66666C17.8445 2.66666 19.5779 3.01666 21.2001 3.71666C22.8223 4.41666 24.2334 5.36666 25.4334 6.56666C26.6334 7.76666 27.5834 9.17777 28.2834 10.8C28.9834 12.4222 29.3334 14.1555 29.3334 16C29.3334 17.8444 28.9834 19.5778 28.2834 21.2C27.5834 22.8222 26.6334 24.2333 25.4334 25.4333C24.2334 26.6333 22.8223 27.5833 21.2001 28.2833C19.5779 28.9833 17.8445 29.3333 16.0001 29.3333ZM16.0001 26.6667C18.9779 26.6667 21.5001 25.6333 23.5667 23.5667C25.6334 21.5 26.6667 18.9778 26.6667 16C26.6667 13.0222 25.6334 10.5 23.5667 8.43332C21.5001 6.36666 18.9779 5.33332 16.0001 5.33332C13.0223 5.33332 10.5001 6.36666 8.43342 8.43332C6.36675 10.5 5.33341 13.0222 5.33341 16C5.33341 18.9778 6.36675 21.5 8.43342 23.5667C10.5001 25.6333 13.0223 26.6667 16.0001 26.6667ZM16.1334 10.2667C16.689 10.2667 17.1723 10.4444 17.5834 10.8C17.9945 11.1555 18.2001 11.6 18.2001 12.1333C18.2001 12.6222 18.0501 13.0555 17.7501 13.4333C17.4501 13.8111 17.1112 14.1667 16.7334 14.5C16.2223 14.9444 15.7723 15.4333 15.3834 15.9667C14.9945 16.5 14.8001 17.1 14.8001 17.7667C14.8001 18.0778 14.9167 18.3389 15.1501 18.55C15.3834 18.7611 15.6556 18.8667 15.9667 18.8667C16.3001 18.8667 16.5834 18.7555 16.8167 18.5333C17.0501 18.3111 17.2001 18.0333 17.2667 17.7C17.3556 17.2333 17.5556 16.8167 17.8667 16.45C18.1779 16.0833 18.5112 15.7333 18.8667 15.4C19.3779 14.9111 19.8167 14.3778 20.1834 13.8C20.5501 13.2222 20.7334 12.5778 20.7334 11.8667C20.7334 10.7333 20.2723 9.80555 19.3501 9.08332C18.4279 8.3611 17.3556 7.99999 16.1334 7.99999C15.289 7.99999 14.4834 8.17777 13.7167 8.53332C12.9501 8.88888 12.3667 9.43332 11.9667 10.1667C11.8112 10.4333 11.7612 10.7167 11.8167 11.0167C11.8723 11.3167 12.0223 11.5444 12.2667 11.7C12.5779 11.8778 12.9001 11.9333 13.2334 11.8667C13.5667 11.8 13.8445 11.6111 14.0667 11.3C14.3112 10.9667 14.6167 10.7111 14.9834 10.5333C15.3501 10.3555 15.7334 10.2667 16.1334 10.2667Z">
                </path>
            </g>
        </g>
    </symbol>
    <symbol xmlns="http://www.w3.org/2000/svg" viewBox="0 0 32 33" id="home">
        <g id="icon/home">
            <mask id="mask0_839_3415" maskUnits="userSpaceOnUse" x="0" y="0" width="32" height="33">
                <rect id="Bounding box" y="0.5" width="32" height="32"></rect>
            </mask>
            <g mask="url(#mask0_839_3415)">
                <path id="home"
                    d="M7.99992 25.8333H11.9999V17.8333H19.9999V25.8333H23.9999V13.8333L15.9999 7.83334L7.99992 13.8333V25.8333ZM7.99992 28.5C7.26659 28.5 6.63881 28.2389 6.11659 27.7167C5.59436 27.1945 5.33325 26.5667 5.33325 25.8333V13.8333C5.33325 13.4111 5.4277 13.0111 5.61659 12.6333C5.80547 12.2556 6.06659 11.9444 6.39992 11.7L14.3999 5.70001C14.6444 5.52223 14.8999 5.38889 15.1666 5.30001C15.4333 5.21112 15.711 5.16667 15.9999 5.16667C16.2888 5.16667 16.5666 5.21112 16.8333 5.30001C17.0999 5.38889 17.3555 5.52223 17.5999 5.70001L25.5999 11.7C25.9333 11.9444 26.1944 12.2556 26.3833 12.6333C26.5721 13.0111 26.6666 13.4111 26.6666 13.8333V25.8333C26.6666 26.5667 26.4055 27.1945 25.8833 27.7167C25.361 28.2389 24.7333 28.5 23.9999 28.5H17.3333V20.5H14.6666V28.5H7.99992Z">
                </path>
            </g>
        </g>
    </symbol>
</svg>