<svg width="24" height="24" viewBox="0 0 24 24" fill="none" xmlns="http://www.w3.org/2000/svg">
<mask id="mask0_445_1756" style="mask-type:alpha" maskUnits="userSpaceOnUse" x="0" y="0" width="24" height="24">
<rect width="24" height="24" fill="#D9D9D9"/>
</mask>
<g mask="url(#mask0_445_1756)">
<path d="M4.72505 20C3.72505 20 2.87088 19.6417 2.16255 18.925C1.45422 18.2083 1.08338 17.3417 1.05005 16.325C1.05005 16.175 1.05838 16.025 1.07505 15.875C1.09172 15.725 1.11672 15.575 1.15005 15.425L3.25005 7.025C3.48338 6.125 3.95838 5.39583 4.67505 4.8375C5.39172 4.27917 6.20838 4 7.12505 4H16.8751C17.7917 4 18.6084 4.27917 19.3251 4.8375C20.0417 5.39583 20.5167 6.125 20.7501 7.025L22.85 15.425C22.8834 15.575 22.9126 15.7292 22.9376 15.8875C22.9626 16.0458 22.975 16.2 22.975 16.35C22.975 17.3667 22.6126 18.2292 21.8876 18.9375C21.1625 19.6458 20.2917 20 19.2751 20C18.5751 20 17.9251 19.8167 17.3251 19.45C16.725 19.0833 16.2751 18.5833 15.975 17.95L15.2751 16.5C15.1917 16.3333 15.0667 16.2083 14.9001 16.125C14.7334 16.0417 14.5584 16 14.375 16H9.62505C9.44172 16 9.26672 16.0417 9.10005 16.125C8.93338 16.2083 8.80838 16.3333 8.72505 16.5L8.02505 17.95C7.72505 18.5833 7.27505 19.0833 6.67505 19.45C6.07505 19.8167 5.42505 20 4.72505 20ZM4.80005 18C5.11672 18 5.40422 17.9167 5.66255 17.75C5.92088 17.5833 6.11672 17.3583 6.25005 17.075L6.95005 15.65C7.20005 15.1333 7.56672 14.7292 8.05005 14.4375C8.53338 14.1458 9.05838 14 9.62505 14H14.375C14.9417 14 15.4667 14.15 15.9501 14.45C16.4334 14.75 16.8084 15.15 17.0751 15.65L17.7751 17.075C17.9084 17.3583 18.1042 17.5833 18.3626 17.75C18.6209 17.9167 18.9084 18 19.225 18C19.6917 18 20.0917 17.8458 20.4251 17.5375C20.7584 17.2292 20.9334 16.8417 20.9501 16.375C20.9501 16.3917 20.9334 16.2333 20.9001 15.9L18.8001 7.525C18.6834 7.075 18.4501 6.70833 18.1 6.425C17.75 6.14167 17.3417 6 16.8751 6H7.12505C6.65838 6 6.24588 6.14167 5.88755 6.425C5.52922 6.70833 5.30005 7.075 5.20005 7.525L3.10005 15.9C3.06672 16 3.05005 16.15 3.05005 16.35C3.05005 16.8167 3.22088 17.2083 3.56255 17.525C3.90422 17.8417 4.31672 18 4.80005 18ZM13.5 11C13.7834 11 14.0209 10.9042 14.2126 10.7125C14.4042 10.5208 14.5 10.2833 14.5 10C14.5 9.71667 14.4042 9.47917 14.2126 9.2875C14.0209 9.09583 13.7834 9 13.5 9C13.2167 9 12.9792 9.09583 12.7875 9.2875C12.5959 9.47917 12.5 9.71667 12.5 10C12.5 10.2833 12.5959 10.5208 12.7875 10.7125C12.9792 10.9042 13.2167 11 13.5 11ZM15.5001 9C15.7834 9 16.0209 8.90417 16.2126 8.7125C16.4042 8.52083 16.5001 8.28333 16.5001 8C16.5001 7.71667 16.4042 7.47917 16.2126 7.2875C16.0209 7.09583 15.7834 7 15.5001 7C15.2167 7 14.9792 7.09583 14.7875 7.2875C14.5959 7.47917 14.5 7.71667 14.5 8C14.5 8.28333 14.5959 8.52083 14.7875 8.7125C14.9792 8.90417 15.2167 9 15.5001 9ZM15.5001 13C15.7834 13 16.0209 12.9042 16.2126 12.7125C16.4042 12.5208 16.5001 12.2833 16.5001 12C16.5001 11.7167 16.4042 11.4792 16.2126 11.2875C16.0209 11.0958 15.7834 11 15.5001 11C15.2167 11 14.9792 11.0958 14.7875 11.2875C14.5959 11.4792 14.5 11.7167 14.5 12C14.5 12.2833 14.5959 12.5208 14.7875 12.7125C14.9792 12.9042 15.2167 13 15.5001 13ZM17.5 11C17.7834 11 18.0209 10.9042 18.2126 10.7125C18.4042 10.5208 18.5 10.2833 18.5 10C18.5 9.71667 18.4042 9.47917 18.2126 9.2875C18.0209 9.09583 17.7834 9 17.5 9C17.2167 9 16.9792 9.09583 16.7875 9.2875C16.5959 9.47917 16.5001 9.71667 16.5001 10C16.5001 10.2833 16.5959 10.5208 16.7875 10.7125C16.9792 10.9042 17.2167 11 17.5 11ZM8.50005 12.5C8.71672 12.5 8.89588 12.4292 9.03755 12.2875C9.17922 12.1458 9.25005 11.9667 9.25005 11.75V10.75H10.25C10.4667 10.75 10.6459 10.6792 10.7875 10.5375C10.9292 10.3958 11 10.2167 11 10C11 9.78333 10.9292 9.60417 10.7875 9.4625C10.6459 9.32083 10.4667 9.25 10.25 9.25H9.25005V8.25C9.25005 8.03333 9.17922 7.85417 9.03755 7.7125C8.89588 7.57083 8.71672 7.5 8.50005 7.5C8.28338 7.5 8.10422 7.57083 7.96255 7.7125C7.82088 7.85417 7.75005 8.03333 7.75005 8.25V9.25H6.75005C6.53338 9.25 6.35422 9.32083 6.21255 9.4625C6.07088 9.60417 6.00005 9.78333 6.00005 10C6.00005 10.2167 6.07088 10.3958 6.21255 10.5375C6.35422 10.6792 6.53338 10.75 6.75005 10.75H7.75005V11.75C7.75005 11.9667 7.82088 12.1458 7.96255 12.2875C8.10422 12.4292 8.28338 12.5 8.50005 12.5Z" fill="white"/>
</g>
</svg>
