<svg width="25" height="24" viewBox="0 0 25 24" fill="none" xmlns="http://www.w3.org/2000/svg">
<g id="logo_icon/steam" clip-path="url(#clip0_296_4209)">
<g id="B">
<g id="Group">
<path id="Vector" d="M1.41682 15.3976C2.87676 20.2656 7.39208 23.8153 12.7352 23.8153C19.2606 23.8153 24.5506 18.5254 24.5506 12C24.5506 5.47454 19.2606 0.18457 12.7352 0.18457C6.4738 0.18457 1.34999 5.05583 0.945312 11.215C1.7111 12.4988 2.00833 13.293 1.41608 15.3976H1.41682Z" fill="url(#paint0_linear_296_4209)"/>
<path id="Vector_2" d="M12.1259 9.04055L12.127 9.09889L9.23594 13.2989C8.76776 13.2775 8.29809 13.3598 7.85206 13.5433C7.6579 13.6222 7.47252 13.7212 7.29896 13.8387L0.950032 11.222C0.950032 11.222 0.803078 13.6389 1.41526 15.4401L5.90363 17.2921C6.12517 18.2994 6.81932 19.1826 7.83914 19.6072C8.64146 19.9406 9.54329 19.9419 10.3466 19.6108C11.1498 19.2797 11.7889 18.6434 12.1233 17.8415C12.3018 17.4144 12.3878 16.9544 12.3759 16.4916L16.5087 13.5359L16.6102 13.5378C19.0859 13.5378 21.0982 11.5196 21.0982 9.04055C21.0982 6.56153 19.0896 4.5507 16.6102 4.54553C14.1356 4.54553 12.1222 6.56153 12.1222 9.04055H12.1259ZM11.4318 17.5513C10.8949 18.8436 9.41354 19.4517 8.12603 18.9153C7.55469 18.6751 7.09159 18.2333 6.82486 17.6739L8.28591 18.2794C8.51161 18.3734 8.75361 18.4219 8.99809 18.4223C9.24257 18.4227 9.48472 18.3749 9.71072 18.2817C9.93672 18.1885 10.1421 18.0516 10.3152 17.879C10.4883 17.7063 10.6257 17.5013 10.7195 17.2755C10.9095 16.8193 10.9106 16.3064 10.7226 15.8494C10.5347 15.3924 10.173 15.0287 9.71705 14.8382L8.2032 14.2124C8.78585 13.9908 9.44825 13.9834 10.0678 14.2408C10.6955 14.5004 11.1755 14.9892 11.4325 15.6143C11.6895 16.2394 11.688 16.9288 11.4288 17.5513M16.6143 12.0369C15.821 12.0347 15.0609 11.7182 14.5004 11.1568C13.94 10.5953 13.6249 9.83459 13.6242 9.04129C13.6251 8.24811 13.9403 7.4876 14.5007 6.92628C15.0611 6.36497 15.8211 6.0486 16.6143 6.04646C17.4076 6.04841 18.1678 6.36469 18.7283 6.92602C19.2889 7.48736 19.6042 8.24798 19.605 9.04129C19.6044 9.83472 19.2892 10.5955 18.7286 11.157C18.168 11.7185 17.4077 12.0349 16.6143 12.0369ZM14.3738 9.03649C14.3733 8.44044 14.6095 7.86858 15.0304 7.44659C15.4514 7.0246 16.0227 6.787 16.6187 6.78602C17.8575 6.78602 18.8651 7.79402 18.8651 9.03649C18.8654 9.63266 18.6289 10.2046 18.2077 10.6264C17.7864 11.0483 17.2149 11.2856 16.6187 11.2862C16.0227 11.2853 15.4515 11.0479 15.0305 10.626C14.6094 10.2042 14.3735 9.63247 14.3738 9.03649Z" fill="white"/>
</g>
</g>
</g>
<defs>
<linearGradient id="paint0_linear_296_4209" x1="1181.21" y1="0.18457" x2="1181.21" y2="2363.26" gradientUnits="userSpaceOnUse">
<stop stop-color="#111D2E"/>
<stop offset="0.212" stop-color="#051839"/>
<stop offset="0.407" stop-color="#0A1B48"/>
<stop offset="0.581" stop-color="#132E62"/>
<stop offset="0.738" stop-color="#144B7E"/>
<stop offset="0.873" stop-color="#136497"/>
<stop offset="1" stop-color="#1387B8"/>
</linearGradient>
<clipPath id="clip0_296_4209">
<rect width="24" height="24" fill="white" transform="translate(0.75)"/>
</clipPath>
</defs>
</svg>
