<svg width="33" height="32" viewBox="0 0 33 32" fill="none" xmlns="http://www.w3.org/2000/svg">
<g id="icon/supervised_user_circle">
<mask id="mask0_1580_8859" style="mask-type:alpha" maskUnits="userSpaceOnUse" x="0" y="0" width="33" height="32">
<rect id="Bounding box" x="0.5" width="32" height="32" fill="#D9D9D9"/>
</mask>
<g mask="url(#mask0_1580_8859)">
<path id="supervised_user_circle" d="M16.5003 29.3334C14.6559 29.3334 12.9225 28.9834 11.3003 28.2834C9.6781 27.5834 8.26699 26.6334 7.06699 25.4334C5.86699 24.2334 4.91699 22.8223 4.21699 21.2001C3.51699 19.5779 3.16699 17.8445 3.16699 16.0001C3.16699 14.1556 3.51699 12.4223 4.21699 10.8001C4.91699 9.17786 5.86699 7.76675 7.06699 6.56675C8.26699 5.36675 9.6781 4.41675 11.3003 3.71675C12.9225 3.01675 14.6559 2.66675 16.5003 2.66675C18.3448 2.66675 20.0781 3.01675 21.7003 3.71675C23.3225 4.41675 24.7337 5.36675 25.9337 6.56675C27.1337 7.76675 28.0837 9.17786 28.7837 10.8001C29.4837 12.4223 29.8337 14.1556 29.8337 16.0001C29.8337 17.8445 29.4837 19.5779 28.7837 21.2001C28.0837 22.8223 27.1337 24.2334 25.9337 25.4334C24.7337 26.6334 23.3225 27.5834 21.7003 28.2834C20.0781 28.9834 18.3448 29.3334 16.5003 29.3334ZM13.167 18.0001C14.4559 18.0001 15.5559 17.5445 16.467 16.6334C17.3781 15.7223 17.8337 14.6223 17.8337 13.3334C17.8337 12.0445 17.3781 10.9445 16.467 10.0334C15.5559 9.1223 14.4559 8.66675 13.167 8.66675C11.8781 8.66675 10.7781 9.1223 9.86699 10.0334C8.95588 10.9445 8.50033 12.0445 8.50033 13.3334C8.50033 14.6223 8.95588 15.7223 9.86699 16.6334C10.7781 17.5445 11.8781 18.0001 13.167 18.0001ZM22.5003 19.3334C23.4337 19.3334 24.2225 19.0112 24.867 18.3667C25.5114 17.7223 25.8337 16.9334 25.8337 16.0001C25.8337 15.0667 25.5114 14.2779 24.867 13.6334C24.2225 12.989 23.4337 12.6667 22.5003 12.6667C21.567 12.6667 20.7781 12.989 20.1337 13.6334C19.4892 14.2779 19.167 15.0667 19.167 16.0001C19.167 16.9334 19.4892 17.7223 20.1337 18.3667C20.7781 19.0112 21.567 19.3334 22.5003 19.3334ZM16.5003 26.6667C18.3892 26.6667 20.1114 26.2223 21.667 25.3334C23.2225 24.4445 24.4781 23.2667 25.4337 21.8001C24.967 21.6667 24.4892 21.5556 24.0003 21.4667C23.5114 21.3779 23.0114 21.3334 22.5003 21.3334C21.3225 21.3334 19.9003 21.6779 18.2337 22.3667C16.567 23.0556 15.2337 24.4112 14.2337 26.4334C14.6114 26.5223 14.9892 26.5834 15.367 26.6167C15.7448 26.6501 16.1225 26.6667 16.5003 26.6667ZM12.267 25.8001C13.0448 24.2001 13.9281 23.0112 14.917 22.2334C15.9059 21.4556 16.6559 20.9334 17.167 20.6667C16.5225 20.4667 15.8725 20.3056 15.217 20.1834C14.5614 20.0612 13.8781 20.0001 13.167 20.0001C12.167 20.0001 11.1781 20.1223 10.2003 20.3667C9.22255 20.6112 8.2781 20.9556 7.36699 21.4001C7.94477 22.3556 8.65033 23.2167 9.48366 23.9834C10.317 24.7501 11.2448 25.3556 12.267 25.8001Z" fill="white"/>
</g>
</g>
</svg>
