<svg width="33" height="33" viewBox="0 0 33 33" fill="none" xmlns="http://www.w3.org/2000/svg">
<g id="logo_icon/Telegram_32_icononly">
<g id="Vector">
<path fill-rule="evenodd" clip-rule="evenodd" d="M4.82477 14.4709C11.9508 11.3661 16.7027 9.31933 19.0803 8.33041C25.8687 5.50685 27.2793 5.01637 28.1987 5.00017C28.4009 4.99661 28.8531 5.04673 29.146 5.28437C29.3933 5.48504 29.4613 5.75611 29.4939 5.94636C29.5264 6.13661 29.567 6.57001 29.5347 6.90866C29.1669 10.7739 27.5751 20.1538 26.7653 24.483C26.4226 26.3148 25.7479 26.929 25.0947 26.9891C23.6752 27.1197 22.5973 26.051 21.2224 25.1497C19.0709 23.7394 17.8555 22.8615 15.7672 21.4853C13.3537 19.8949 14.9183 19.0208 16.2937 17.5922C16.6536 17.2184 22.9081 11.5294 23.0292 11.0134C23.0443 10.9488 23.0584 10.7082 22.9155 10.5812C22.7725 10.4541 22.5616 10.4976 22.4094 10.5321C22.1936 10.5811 18.7566 12.8528 12.0985 17.3472C11.123 18.0171 10.2393 18.3435 9.44762 18.3264C8.57483 18.3075 6.89592 17.8329 5.64783 17.4272C4.11699 16.9296 2.90031 16.6665 3.00626 15.8214C3.06144 15.3812 3.66761 14.931 4.82477 14.4709Z" fill="white"/>
</g>
</g>
</svg>
