<svg width="20" height="21" viewBox="0 0 20 21" fill="none" xmlns="http://www.w3.org/2000/svg">
<g id="icon/thumb_up">
<mask id="mask0_1301_7368" style="mask-type:alpha" maskUnits="userSpaceOnUse" x="0" y="0" width="20" height="21">
<rect id="Bounding box" y="0.5" width="20" height="20" fill="#D9D9D9"/>
</mask>
<g mask="url(#mask0_1301_7368)">
<path id="thumb_up" d="M5.83268 17.9999V7.16659L10.8327 2.20825C11.041 1.99992 11.2875 1.87839 11.5723 1.84367C11.857 1.80895 12.1313 1.86103 12.3952 1.99992C12.6591 2.13881 12.8535 2.33325 12.9785 2.58325C13.1035 2.83325 13.1313 3.0902 13.0618 3.35409L12.1243 7.16659H17.4993C17.9438 7.16659 18.3327 7.33325 18.666 7.66658C18.9993 7.99992 19.166 8.38881 19.166 8.83325V10.4999C19.166 10.5971 19.1521 10.7013 19.1243 10.8124C19.0966 10.9235 19.0688 11.0277 19.041 11.1249L16.541 16.9999C16.416 17.2777 16.2077 17.5138 15.916 17.7083C15.6243 17.9027 15.3188 17.9999 14.9993 17.9999H5.83268ZM7.49935 7.87492V16.3333H14.9993L17.4993 10.4999V8.83325H9.99935L11.1243 4.24992L7.49935 7.87492ZM3.33268 17.9999C2.87435 17.9999 2.48199 17.8367 2.1556 17.5103C1.82921 17.1839 1.66602 16.7916 1.66602 16.3333V8.83325C1.66602 8.37492 1.82921 7.98256 2.1556 7.65617C2.48199 7.32978 2.87435 7.16659 3.33268 7.16659H5.83268V8.83325H3.33268V16.3333H5.83268V17.9999H3.33268Z" fill="white"/>
</g>
</g>
</svg>
