<svg width="38" height="24" viewBox="0 0 38 24" fill="none" xmlns="http://www.w3.org/2000/svg">
<path d="M36 0H2C0.89543 0 0 0.89543 0 2V22C0 23.1046 0.89543 24 2 24H36C37.1046 24 38 23.1046 38 22V2C38 0.89543 37.1046 0 36 0Z" fill="#0E4595"/>
<path fill-rule="evenodd" clip-rule="evenodd" d="M13.3606 16.8852L15.1308 7.19727H17.9622L16.1907 16.8852H13.3606Z" fill="white"/>
<path fill-rule="evenodd" clip-rule="evenodd" d="M26.4206 7.40689C25.8596 7.21062 24.9807 7 23.883 7C21.0854 7 19.1146 8.31396 19.0979 10.1971C19.0821 11.5892 20.5048 12.3657 21.5787 12.8291C22.6808 13.304 23.0513 13.6069 23.0461 14.0309C23.0391 14.6802 22.166 14.9769 21.3522 14.9769C20.2189 14.9769 19.6169 14.8301 18.6871 14.4684L18.3222 14.3144L17.9248 16.4831C18.5861 16.7535 19.809 16.9879 21.0787 17C24.0549 17 25.987 15.7011 26.009 13.6901C26.0197 12.5881 25.2653 11.7494 23.6319 11.058C22.6422 10.6098 22.0361 10.3108 22.0426 9.85695C22.0426 9.45426 22.5556 9.02367 23.664 9.02367C24.5899 9.01025 25.2605 9.19856 25.7831 9.39483L26.0368 9.50662L26.4206 7.40689Z" fill="white"/>
<path fill-rule="evenodd" clip-rule="evenodd" d="M33.7084 7.19727H31.5205C30.8428 7.19727 30.3356 7.36978 30.0379 8.00065L25.833 16.879H28.8062C28.8062 16.879 29.2923 15.6852 29.4023 15.4231C29.7272 15.4231 32.6154 15.4273 33.0283 15.4273C33.113 15.7664 33.3728 16.879 33.3728 16.879H36L33.7084 7.19727ZM30.2376 13.4515C30.4718 12.8934 31.3657 10.7434 31.3657 10.7434C31.3489 10.7692 31.5981 10.1825 31.7411 9.81875L31.9325 10.654C31.9325 10.654 32.4746 12.9666 32.5879 13.4515H30.2376Z" fill="white"/>
<path fill-rule="evenodd" clip-rule="evenodd" d="M10.9581 7.19727L8.18606 13.8037L7.89072 12.4611C7.37469 10.9134 5.76691 9.23667 3.96948 8.3972L6.5041 16.8697L9.49972 16.8665L13.9572 7.19727H10.9581Z" fill="white"/>
<path fill-rule="evenodd" clip-rule="evenodd" d="M5.60166 7.19727H1.03614L1 7.39883C4.55193 8.20073 6.90221 10.1386 7.87781 12.4671L6.88507 8.01515C6.71368 7.4017 6.21659 7.21864 5.60166 7.19727Z" fill="#F2AE14"/>
</svg>
