<svg width="32" height="32" viewBox="0 0 32 32" fill="none" xmlns="http://www.w3.org/2000/svg">
<g id="icon/work">
<mask id="mask0_1580_8862" style="mask-type:alpha" maskUnits="userSpaceOnUse" x="0" y="0" width="32" height="32">
<rect id="Bounding box" width="32" height="32" fill="#D9D9D9"/>
</mask>
<g mask="url(#mask0_1580_8862)">
<path id="work" d="M5.33366 28.0001C4.60033 28.0001 3.97255 27.739 3.45033 27.2167C2.9281 26.6945 2.66699 26.0667 2.66699 25.3334V10.6667C2.66699 9.93341 2.9281 9.30564 3.45033 8.78341C3.97255 8.26119 4.60033 8.00008 5.33366 8.00008H10.667V5.33341C10.667 4.60008 10.9281 3.9723 11.4503 3.45008C11.9725 2.92786 12.6003 2.66675 13.3337 2.66675H18.667C19.4003 2.66675 20.0281 2.92786 20.5503 3.45008C21.0725 3.9723 21.3337 4.60008 21.3337 5.33341V8.00008H26.667C27.4003 8.00008 28.0281 8.26119 28.5503 8.78341C29.0725 9.30564 29.3337 9.93341 29.3337 10.6667V25.3334C29.3337 26.0667 29.0725 26.6945 28.5503 27.2167C28.0281 27.739 27.4003 28.0001 26.667 28.0001H5.33366ZM13.3337 8.00008H18.667V5.33341H13.3337V8.00008Z" fill="white"/>
</g>
</g>
</svg>
